STARTFONT 2.1
FONT -FontForge-Futura-Medium-R-Normal--27-190-100-100-P-147-ISO10646-1
SIZE 19 100 100
FONTBOUNDINGBOX 50 36 -14 -8
COMMENT "Generated by fontforge, http://fontforge.sourceforge.net"
COMMENT "(c) Copyright 1998, Neufville Digital. ALL RIGHTS RESERVED. This font is licensed, not sold, and may not be reproduced without the written consent of Neufville Digital. Parts (c) Visualogik Technology & Design, 1998."
STARTPROPERTIES 40
FOUNDRY "FontForge"
FAMILY_NAME "Futura"
WEIGHT_NAME "Medium"
SLANT "R"
SETWIDTH_NAME "Normal"
ADD_STYLE_NAME ""
PIXEL_SIZE 27
POINT_SIZE 190
RESOLUTION_X 100
RESOLUTION_Y 100
SPACING "P"
AVERAGE_WIDTH 147
CHARSET_REGISTRY "ISO10646"
CHARSET_ENCODING "1"
FONTNAME_REGISTRY ""
CHARSET_COLLECTIONS "ISO8859-2 ISO8859-9 ISO8859-4 ISO10646-1"
FONT_NAME "Futura-Medium"
FACE_NAME "Futura Medium"
COPYRIGHT "(c) Copyright 1998, Neufville Digital. ALL RIGHTS RESERVED. This font is licensed, not sold, and may not be reproduced without the written consent of Neufville Digital. Parts (c) Visualogik Technology & Design, 1998."
FONT_VERSION "16.0d2e1"
FONT_ASCENT 22
FONT_DESCENT 5
UNDERLINE_POSITION -4
UNDERLINE_THICKNESS 3
X_HEIGHT 12
CAP_HEIGHT 19
RAW_ASCENT 799
RAW_DESCENT 200
NORM_SPACE 8
RELATIVE_WEIGHT 50
RELATIVE_SETWIDTH 50
SUPERSCRIPT_X 0
SUPERSCRIPT_Y 12
SUPERSCRIPT_SIZE 16
SUBSCRIPT_X 0
SUBSCRIPT_Y 2
SUBSCRIPT_SIZE 16
FIGURE_WIDTH 17
AVG_LOWERCASE_WIDTH 138
AVG_UPPERCASE_WIDTH 180
ENDPROPERTIES
CHARS 419
STARTCHAR .null
ENCODING 0
SWIDTH 0 0
DWIDTH 0 0
BBX 1 1 0 0
BITMAP
00
ENDCHAR
STARTCHAR controlBS
ENCODING 8
SWIDTH 0 0
DWIDTH 0 0
BBX 1 1 0 0
BITMAP
00
ENDCHAR
STARTCHAR controlHT
ENCODING 9
SWIDTH 308 0
DWIDTH 8 0
BBX 1 1 0 0
BITMAP
00
ENDCHAR
STARTCHAR controlCR
ENCODING 13
SWIDTH 500 0
DWIDTH 14 0
BBX 1 1 0 0
BITMAP
00
ENDCHAR
STARTCHAR controlGS
ENCODING 29
SWIDTH 0 0
DWIDTH 0 0
BBX 1 1 0 0
BITMAP
00
ENDCHAR
STARTCHAR space
ENCODING 32
SWIDTH 308 0
DWIDTH 8 0
BBX 1 1 0 0
BITMAP
00
ENDCHAR
STARTCHAR exclam
ENCODING 33
SWIDTH 331 0
DWIDTH 9 0
BBX 3 20 3 0
BITMAP
E0
E0
E0
E0
E0
E0
E0
E0
E0
E0
E0
E0
E0
E0
E0
00
00
E0
E0
E0
ENDCHAR
STARTCHAR quotedbl
ENCODING 34
SWIDTH 410 0
DWIDTH 11 0
BBX 8 8 2 12
BITMAP
EF
EF
EE
E6
C6
C6
C6
C6
ENDCHAR
STARTCHAR numbersign
ENCODING 35
SWIDTH 617 0
DWIDTH 17 0
BBX 15 21 1 0
BITMAP
0800
0E38
0C38
0C38
0C30
0C30
FFFE
FFFE
FFFE
1C70
1C70
1870
FFFC
FFFC
FFFC
3860
3860
3860
30E0
30E0
30E0
ENDCHAR
STARTCHAR dollar
ENCODING 36
SWIDTH 617 0
DWIDTH 17 0
BBX 13 26 2 -3
BITMAP
0700
0700
0780
1FC0
3FE0
78F0
7060
7000
7000
7800
3E00
1F80
0FE0
01F0
00F0
0078
0038
E038
E078
F070
7FF0
3FE0
1FC0
0700
0700
0700
ENDCHAR
STARTCHAR percent
ENCODING 37
SWIDTH 916 0
DWIDTH 25 0
BBX 23 21 1 0
BITMAP
000080
3F00C0
7F8180
E18180
C1C300
C0C600
E1C600
738C00
7F8C00
1E1800
001800
003000
0061F8
0063FC
00C70C
00C60E
01860E
01060E
03071C
0603FC
0601F0
ENDCHAR
STARTCHAR ampersand
ENCODING 38
SWIDTH 730 0
DWIDTH 20 0
BBX 17 21 2 0
BITMAP
038000
0FC000
1FE000
3C7000
387000
387000
3CE000
1FE000
0FC000
0F8000
3F8000
7FC000
F9E200
E0F700
E07F00
E07E00
E03C00
F07E00
79FF00
7FE780
1F8780
ENDCHAR
STARTCHAR quotesingle
ENCODING 39
SWIDTH 231 0
DWIDTH 6 0
BBX 3 8 2 12
BITMAP
E0
E0
E0
E0
C0
C0
C0
C0
ENDCHAR
STARTCHAR parenleft
ENCODING 40
SWIDTH 366 0
DWIDTH 10 0
BBX 6 28 2 -6
BITMAP
1C
3C
38
38
78
70
70
70
70
70
70
F0
E0
E0
E0
E0
70
70
70
70
70
70
78
38
38
3C
1C
10
ENDCHAR
STARTCHAR parenright
ENCODING 41
SWIDTH 366 0
DWIDTH 10 0
BBX 5 28 2 -6
BITMAP
E0
E0
70
70
70
78
38
38
38
38
38
38
38
38
38
38
38
38
38
38
38
38
70
70
70
E0
E0
20
ENDCHAR
STARTCHAR asterisk
ENCODING 42
SWIDTH 617 0
DWIDTH 17 0
BBX 11 10 3 12
BITMAP
0E00
0E00
4EC0
FFC0
FFE0
1E00
1F00
3B80
3380
1100
ENDCHAR
STARTCHAR plus
ENCODING 43
SWIDTH 617 0
DWIDTH 17 0
BBX 14 14 1 4
BITMAP
0380
0380
0380
0380
0380
0380
FFFC
FFFC
FFFC
0380
0380
0380
0380
0380
ENDCHAR
STARTCHAR comma
ENCODING 44
SWIDTH 308 0
DWIDTH 8 0
BBX 5 9 1 -5
BITMAP
10
38
38
70
70
60
E0
C0
40
ENDCHAR
STARTCHAR hyphen
ENCODING 45
SWIDTH 217 0
DWIDTH 6 0
BBX 6 3 0 5
BITMAP
FC
FC
FC
ENDCHAR
STARTCHAR period
ENCODING 46
SWIDTH 308 0
DWIDTH 8 0
BBX 4 3 2 0
BITMAP
70
F0
70
ENDCHAR
STARTCHAR slash
ENCODING 47
SWIDTH 518 0
DWIDTH 14 0
BBX 14 27 0 -5
BITMAP
001C
001C
0038
0038
0070
0070
00E0
00E0
00C0
01C0
01C0
0380
0380
0700
0700
0600
0E00
0E00
1C00
1C00
3800
3800
3000
7000
7000
E000
E000
ENDCHAR
STARTCHAR zero
ENCODING 48
SWIDTH 617 0
DWIDTH 17 0
BBX 15 21 1 0
BITMAP
0380
0FE0
1FF0
3C78
7838
703C
701C
F01C
E01C
E01C
E00E
E01E
E01C
E01C
F01C
701C
703C
3878
3EF0
1FF0
0FC0
ENDCHAR
STARTCHAR one
ENCODING 49
SWIDTH 617 0
DWIDTH 17 0
BBX 6 20 4 0
BITMAP
7C
FC
FC
1C
1C
1C
1C
1C
1C
1C
1C
1C
1C
1C
1C
1C
1C
1C
1C
1C
ENDCHAR
STARTCHAR two
ENCODING 50
SWIDTH 617 0
DWIDTH 17 0
BBX 13 21 1 0
BITMAP
0700
1FE0
3FF0
7878
7038
F038
E038
0038
0038
0078
00F0
01E0
01E0
03C0
0780
0F00
1E00
1C00
3FF8
7FF8
FFF8
ENDCHAR
STARTCHAR three
ENCODING 51
SWIDTH 617 0
DWIDTH 17 0
BBX 13 21 1 0
BITMAP
0700
1FE0
3FF0
78F0
7078
7038
0038
0078
0070
03E0
03E0
03F0
0078
0038
0038
E038
E038
7078
7DF0
3FE0
1FC0
ENDCHAR
STARTCHAR four
ENCODING 52
SWIDTH 617 0
DWIDTH 17 0
BBX 14 21 1 0
BITMAP
0010
0010
0030
0070
0070
00F0
01F0
01F0
03F0
07F0
0F70
0E70
1E70
3C70
3870
7FFC
FFFC
FFFC
0070
0070
0070
ENDCHAR
STARTCHAR five
ENCODING 53
SWIDTH 617 0
DWIDTH 17 0
BBX 13 20 1 0
BITMAP
07F8
0FF8
0FF8
0E00
1C00
1C00
1FC0
3FE0
3FF0
2078
0038
0038
0038
0038
0038
4038
E078
FFF0
7FE0
3FC0
ENDCHAR
STARTCHAR six
ENCODING 54
SWIDTH 617 0
DWIDTH 17 0
BBX 14 21 1 0
BITMAP
0040
00F0
00E0
01C0
03C0
0780
0700
0F00
1FC0
1FF0
3FF8
7878
703C
701C
F01C
701C
701C
783C
3FF8
1FF0
0FE0
ENDCHAR
STARTCHAR seven
ENCODING 55
SWIDTH 617 0
DWIDTH 17 0
BBX 15 21 1 -1
BITMAP
FFFE
FFFC
FFFC
0038
0078
0070
00E0
01E0
01C0
03C0
0380
0700
0F00
0E00
1E00
1C00
3800
7800
7000
6000
2000
ENDCHAR
STARTCHAR eight
ENCODING 56
SWIDTH 617 0
DWIDTH 17 0
BBX 13 21 2 0
BITMAP
0700
1FC0
3FE0
78F0
7070
E070
E070
7070
70F0
3FE0
1FC0
7FE0
70F0
E070
E038
E038
E078
F070
7FF0
3FE0
1FC0
ENDCHAR
STARTCHAR nine
ENCODING 57
SWIDTH 617 0
DWIDTH 17 0
BBX 14 21 1 0
BITMAP
0300
1FE0
3FF0
3C78
703C
701C
F01C
F01C
701C
703C
7C78
3FF8
1FF0
02E0
01C0
03C0
0780
0700
0E00
1E00
1C00
ENDCHAR
STARTCHAR colon
ENCODING 58
SWIDTH 308 0
DWIDTH 8 0
BBX 4 13 2 0
BITMAP
70
F0
70
00
00
00
00
00
00
00
70
F0
70
ENDCHAR
STARTCHAR semicolon
ENCODING 59
SWIDTH 308 0
DWIDTH 8 0
BBX 6 18 1 -5
BITMAP
38
3C
38
00
00
00
00
00
00
10
38
38
70
70
60
E0
C0
40
ENDCHAR
STARTCHAR less
ENCODING 60
SWIDTH 617 0
DWIDTH 17 0
BBX 13 15 2 3
BITMAP
0008
0038
00F8
03F0
0FC0
7F00
F800
E000
F800
7E00
1F80
07E0
01F8
0078
0018
ENDCHAR
STARTCHAR equal
ENCODING 61
SWIDTH 617 0
DWIDTH 17 0
BBX 14 7 1 7
BITMAP
FFFC
FFFC
0000
0000
FFFC
FFFC
FFFC
ENDCHAR
STARTCHAR greater
ENCODING 62
SWIDTH 617 0
DWIDTH 17 0
BBX 13 15 2 3
BITMAP
8000
E000
F800
7E00
1F80
07E0
01F8
0078
00F8
03F0
0FC0
3F00
FC00
F000
C000
ENDCHAR
STARTCHAR question
ENCODING 63
SWIDTH 489 0
DWIDTH 13 0
BBX 10 21 2 0
BITMAP
0800
7F00
FF80
F380
E1C0
E1C0
0380
0F80
3F00
7E00
F000
E380
E380
F780
7F00
3E00
0000
0000
1C00
1C00
1C00
ENDCHAR
STARTCHAR at
ENCODING 64
SWIDTH 880 0
DWIDTH 24 0
BBX 21 21 1 0
BITMAP
007C00
03FF80
0783C0
1E00E0
380070
3071B0
71FF18
63FF18
638718
E70318
E70318
E70318
670718
630730
63FF70
71FBE0
38E180
1C0000
0E00E0
07FFE0
01FF80
ENDCHAR
STARTCHAR A
ENCODING 65
SWIDTH 740 0
DWIDTH 20 0
BBX 20 21 0 0
BITMAP
002000
006000
007000
00F000
00F000
01F800
01F800
03DC00
039C00
078E00
070E00
070F00
0E0700
0FFF80
1FFF80
1FFF80
3801C0
3801C0
7801E0
7000E0
F000F0
ENDCHAR
STARTCHAR B
ENCODING 66
SWIDTH 591 0
DWIDTH 16 0
BBX 13 20 2 0
BITMAP
FF00
FF80
F7C0
F1C0
F0E0
F0E0
F0E0
F1C0
FFC0
FFC0
FFE0
F0F0
F070
F070
F078
F070
F0F0
FFE0
FFE0
FF80
ENDCHAR
STARTCHAR C
ENCODING 67
SWIDTH 700 0
DWIDTH 19 0
BBX 16 21 1 0
BITMAP
0078
03FF
07FF
1F87
1E01
3C00
7800
7000
7000
F000
F000
F000
7000
7000
7000
7800
3C00
1E01
0FFF
07FF
01FE
ENDCHAR
STARTCHAR D
ENCODING 68
SWIDTH 726 0
DWIDTH 20 0
BBX 16 20 2 0
BITMAP
FFC0
FFF0
FFF8
F03C
F01E
F00E
F00F
F007
F007
F007
F007
F007
F007
F00F
F01E
F03E
F07C
FFF8
FFE0
FF80
ENDCHAR
STARTCHAR E
ENCODING 69
SWIDTH 565 0
DWIDTH 15 0
BBX 12 20 2 0
BITMAP
FFF0
FFF0
FFF0
F000
F000
F000
F000
FFE0
FFE0
FFE0
F000
F000
F000
F000
F000
F000
F000
FFF0
FFF0
FFF0
ENDCHAR
STARTCHAR F
ENCODING 70
SWIDTH 508 0
DWIDTH 14 0
BBX 11 20 2 0
BITMAP
FFE0
FFE0
FFE0
F000
F000
F000
F000
FFC0
FFC0
FFC0
F000
F000
F000
F000
F000
F000
F000
F000
F000
F000
ENDCHAR
STARTCHAR G
ENCODING 71
SWIDTH 842 0
DWIDTH 23 0
BBX 20 21 1 0
BITMAP
007800
03FF00
0FFF80
1F87E0
3E01E0
3C00C0
780000
700000
700000
F00000
F00FF0
F00FF0
700FF0
700070
700070
7800F0
3C01E0
1E03E0
0FFFC0
07FF80
01FE00
ENDCHAR
STARTCHAR H
ENCODING 72
SWIDTH 733 0
DWIDTH 20 0
BBX 15 20 2 0
BITMAP
F00E
F00E
F00E
F00E
F00E
F00E
F00E
F00E
FFFE
FFFE
FFFE
F00E
F00E
F00E
F00E
F00E
F00E
F00E
F00E
F00E
ENDCHAR
STARTCHAR I
ENCODING 73
SWIDTH 294 0
DWIDTH 8 0
BBX 4 20 2 0
BITMAP
F0
F0
F0
F0
F0
F0
F0
F0
F0
F0
F0
F0
F0
F0
F0
F0
F0
F0
F0
F0
ENDCHAR
STARTCHAR J
ENCODING 74
SWIDTH 410 0
DWIDTH 11 0
BBX 9 20 0 0
BITMAP
0380
0380
0380
0380
0380
0380
0380
0380
0380
0380
0380
0380
0380
0380
0780
0700
0700
7F00
FE00
FC00
ENDCHAR
STARTCHAR K
ENCODING 75
SWIDTH 662 0
DWIDTH 18 0
BBX 15 20 2 0
BITMAP
F01E
F03C
F078
F0F0
F1E0
F3C0
F780
FF00
FE00
FE00
FF00
F780
F780
F3C0
F1E0
F0F0
F078
F07C
F03C
F01E
ENDCHAR
STARTCHAR L
ENCODING 76
SWIDTH 443 0
DWIDTH 12 0
BBX 10 20 2 0
BITMAP
F000
F000
F000
F000
F000
F000
F000
F000
F000
F000
F000
F000
F000
F000
F000
F000
F000
FFC0
FFC0
FFC0
ENDCHAR
STARTCHAR M
ENCODING 77
SWIDTH 961 0
DWIDTH 26 0
BBX 22 21 2 0
BITMAP
080000
080060
1C0060
1C00E0
1C00E0
1E01E0
1E01F0
3F03F0
3F03F0
3F87F0
3B8770
3B8770
71CE38
71CE38
70FC38
70FC38
707838
F07838
E0781C
E0301C
E0301C
ENDCHAR
STARTCHAR N
ENCODING 78
SWIDTH 844 0
DWIDTH 23 0
BBX 18 22 2 0
BITMAP
800000
C00000
E001C0
F001C0
F801C0
F801C0
FC01C0
FE01C0
FF01C0
F781C0
F3C1C0
F1E1C0
F0F1C0
F079C0
F03DC0
F01FC0
F00FC0
F007C0
F003C0
F001C0
F000C0
F00040
ENDCHAR
STARTCHAR O
ENCODING 79
SWIDTH 893 0
DWIDTH 24 0
BBX 22 21 1 0
BITMAP
007800
03FF00
07FFC0
1F87E0
1E01F0
3C0070
780078
700038
700038
F0003C
F0001C
F0001C
70003C
700038
700038
780078
3C00F0
1E01E0
0FFFC0
07FF80
01FE00
ENDCHAR
STARTCHAR P
ENCODING 80
SWIDTH 540 0
DWIDTH 15 0
BBX 12 20 2 0
BITMAP
FF80
FFC0
F7E0
F0E0
F070
F070
F070
F0F0
F1E0
FFE0
FFC0
FE00
F000
F000
F000
F000
F000
F000
F000
F000
ENDCHAR
STARTCHAR Q
ENCODING 81
SWIDTH 893 0
DWIDTH 24 0
BBX 22 21 1 0
BITMAP
007800
03FF00
0FFFC0
1F87E0
1E01F0
3C0070
780078
700038
700038
F0003C
F0001C
F0001C
70003C
703C38
701E38
780F78
3C07F0
1E03E0
0FFFE0
07FFF0
01FE78
ENDCHAR
STARTCHAR R
ENCODING 82
SWIDTH 602 0
DWIDTH 16 0
BBX 13 20 2 0
BITMAP
FF80
FFC0
FFE0
F0E0
F070
F070
F070
F0F0
F1E0
FFC0
FF80
FE00
F700
F780
F3C0
F1C0
F1E0
F0F0
F078
F038
ENDCHAR
STARTCHAR S
ENCODING 83
SWIDTH 583 0
DWIDTH 16 0
BBX 13 21 1 0
BITMAP
0380
1FE0
3FF0
3C78
7830
7000
7800
3C00
3F00
1FC0
07E0
01F0
0078
0038
0038
F038
7038
7878
7FF0
3FF0
1FC0
ENDCHAR
STARTCHAR T
ENCODING 84
SWIDTH 482 0
DWIDTH 13 0
BBX 13 20 0 0
BITMAP
FFF8
FFF8
FFF8
0700
0700
0700
0700
0700
0700
0700
0700
0700
0700
0700
0700
0700
0700
0700
0700
0700
ENDCHAR
STARTCHAR U
ENCODING 85
SWIDTH 738 0
DWIDTH 20 0
BBX 16 20 2 0
BITMAP
F00F
F00F
F00F
F00F
F00F
F00F
F00F
F00F
F00F
F00F
F00F
F00F
F00F
F00E
700E
700E
781E
3FFC
1FF8
0FF0
ENDCHAR
STARTCHAR V
ENCODING 86
SWIDTH 676 0
DWIDTH 18 0
BBX 18 20 0 0
BITMAP
F003C0
700380
780380
380780
380700
3C0F00
1C0E00
1E0E00
0E1C00
0E1C00
073C00
073800
07B800
03F000
03F000
01F000
01E000
01E000
00C000
00C000
ENDCHAR
STARTCHAR W
ENCODING 87
SWIDTH 1060 0
DWIDTH 29 0
BBX 28 22 0 -1
BITMAP
00020000
F0020070
700600F0
780700E0
380F00E0
380F01E0
3C0F81C0
1C1F83C0
1E1F8380
0E1DC380
0E39C700
0F38E700
0770EF00
0770EE00
03F07E00
03E07C00
03E07C00
01E03800
01C03800
00C03800
00801000
00801000
ENDCHAR
STARTCHAR X
ENCODING 88
SWIDTH 617 0
DWIDTH 17 0
BBX 15 20 1 0
BITMAP
701E
783C
3838
3C78
1C70
1EF0
0EE0
07C0
07C0
0380
07C0
0FC0
0EE0
1EF0
1C70
3878
7838
703C
F01E
E00E
ENDCHAR
STARTCHAR Y
ENCODING 89
SWIDTH 600 0
DWIDTH 16 0
BBX 16 20 0 0
BITMAP
F00F
700E
381E
3C1C
1C3C
1E78
0E70
0FF0
07E0
03E0
03C0
01C0
01C0
01C0
01C0
01C0
01C0
01C0
01C0
01C0
ENDCHAR
STARTCHAR Z
ENCODING 90
SWIDTH 625 0
DWIDTH 17 0
BBX 15 20 1 0
BITMAP
3FFC
3FFC
3FF8
0078
0070
00F0
00E0
01C0
03C0
0380
0780
0700
0F00
0E00
1C00
3C00
3800
7FFE
7FFE
FFFE
ENDCHAR
STARTCHAR bracketleft
ENCODING 91
SWIDTH 357 0
DWIDTH 10 0
BBX 5 27 3 -5
BITMAP
F8
F8
F8
E0
E0
E0
E0
E0
E0
E0
E0
E0
E0
E0
E0
E0
E0
E0
E0
E0
E0
E0
E0
E0
E0
F8
F8
ENDCHAR
STARTCHAR backslash
ENCODING 92
SWIDTH 518 0
DWIDTH 14 0
BBX 14 27 0 -5
BITMAP
E000
E000
7000
7000
3800
3800
1C00
1C00
0C00
0E00
0E00
0700
0700
0380
0380
0180
01C0
01C0
00E0
00E0
0070
0070
0030
0038
0038
001C
001C
ENDCHAR
STARTCHAR bracketright
ENCODING 93
SWIDTH 357 0
DWIDTH 10 0
BBX 6 27 1 -5
BITMAP
FC
FC
FC
1C
1C
1C
1C
1C
1C
1C
1C
1C
1C
1C
1C
1C
1C
1C
1C
1C
1C
1C
1C
1C
1C
FC
FC
ENDCHAR
STARTCHAR asciicircum
ENCODING 94
SWIDTH 565 0
DWIDTH 15 0
BBX 13 9 1 11
BITMAP
0F80
0FC0
1DC0
1DE0
38E0
7870
7070
F038
E038
ENDCHAR
STARTCHAR underscore
ENCODING 95
SWIDTH 565 0
DWIDTH 15 0
BBX 15 2 0 -4
BITMAP
FFFE
FFFE
ENDCHAR
STARTCHAR grave
ENCODING 96
SWIDTH 565 0
DWIDTH 15 0
BBX 6 5 3 15
BITMAP
E0
F0
78
1C
0C
ENDCHAR
STARTCHAR a
ENCODING 97
SWIDTH 599 0
DWIDTH 16 0
BBX 13 13 1 0
BITMAP
1FB8
3FF8
7FF8
7078
F038
E038
E018
E038
F038
7038
7CF8
3FF8
1FB8
ENDCHAR
STARTCHAR b
ENCODING 98
SWIDTH 599 0
DWIDTH 16 0
BBX 13 22 2 0
BITMAP
E000
E000
E000
E000
E000
E000
E000
E000
E000
EFC0
FFE0
FFF0
F070
E078
E038
E038
E038
E038
F070
F9F0
FFE0
EFC0
ENDCHAR
STARTCHAR c
ENCODING 99
SWIDTH 476 0
DWIDTH 13 0
BBX 11 13 1 0
BITMAP
0FC0
1FE0
3FE0
7820
7000
E000
E000
E000
F000
7020
7CE0
3FE0
0FE0
ENDCHAR
STARTCHAR d
ENCODING 100
SWIDTH 599 0
DWIDTH 16 0
BBX 13 22 1 0
BITMAP
0038
0038
0038
0038
0038
0038
0038
0038
0038
1FB8
3FF8
7FF8
7078
F038
E038
E018
E038
F038
7038
7CF8
3FF8
1FB8
ENDCHAR
STARTCHAR e
ENCODING 101
SWIDTH 553 0
DWIDTH 15 0
BBX 13 13 1 0
BITMAP
1FC0
3FE0
7DF0
7070
F070
FFF8
FFF8
E000
F020
7070
7CF0
3FE0
1FC0
ENDCHAR
STARTCHAR f
ENCODING 102
SWIDTH 296 0
DWIDTH 8 0
BBX 7 23 1 0
BITMAP
0C
3E
7E
7A
70
70
70
70
70
70
FE
FE
FE
70
70
70
70
70
70
70
70
70
70
ENDCHAR
STARTCHAR g
ENCODING 103
SWIDTH 598 0
DWIDTH 16 0
BBX 13 20 1 -7
BITMAP
1FB8
3FF8
7FF8
7078
F038
E038
E038
E038
F038
7038
7CF8
3FF8
1FB8
0038
0038
7038
7878
3FF0
1FE0
0FC0
ENDCHAR
STARTCHAR h
ENCODING 104
SWIDTH 548 0
DWIDTH 15 0
BBX 11 22 2 0
BITMAP
E000
E000
E000
E000
E000
E000
E000
E000
E000
EF80
FFC0
FFE0
E0E0
E0E0
E0E0
E0E0
E0E0
E0E0
E0E0
E0E0
E0E0
E0E0
ENDCHAR
STARTCHAR i
ENCODING 105
SWIDTH 249 0
DWIDTH 7 0
BBX 4 20 1 0
BITMAP
70
F0
70
60
00
00
00
70
70
70
70
70
70
70
70
70
70
70
70
70
ENDCHAR
STARTCHAR j
ENCODING 106
SWIDTH 249 0
DWIDTH 7 0
BBX 4 27 1 -7
BITMAP
70
F0
70
60
00
00
00
70
70
70
70
70
70
70
70
70
70
70
70
70
70
70
70
70
70
70
70
ENDCHAR
STARTCHAR k
ENCODING 107
SWIDTH 498 0
DWIDTH 13 0
BBX 11 22 2 0
BITMAP
E000
E000
E000
E000
E000
E000
E000
E000
E000
E1E0
E3C0
E780
EF00
FE00
F800
FC00
FE00
EF00
E780
E380
E3C0
E1E0
ENDCHAR
STARTCHAR l
ENCODING 108
SWIDTH 249 0
DWIDTH 7 0
BBX 3 22 2 0
BITMAP
E0
E0
E0
E0
E0
E0
E0
E0
E0
E0
E0
E0
E0
E0
E0
E0
E0
E0
E0
E0
E0
E0
ENDCHAR
STARTCHAR m
ENCODING 109
SWIDTH 791 0
DWIDTH 21 0
BBX 17 13 2 0
BITMAP
EF1F00
FFBF80
FFF780
E1E380
E1C380
E1C380
E1C380
E1C380
E1C380
E1C380
E1C380
E1C380
E1C380
ENDCHAR
STARTCHAR n
ENCODING 110
SWIDTH 548 0
DWIDTH 15 0
BBX 11 13 2 0
BITMAP
EF80
FFC0
FBE0
E0E0
E0E0
E0E0
E0E0
E0E0
E0E0
E0E0
E0E0
E0E0
E0E0
ENDCHAR
STARTCHAR o
ENCODING 111
SWIDTH 601 0
DWIDTH 16 0
BBX 14 13 1 0
BITMAP
0FC0
1FF0
3FF8
7038
703C
E01C
E01C
E01C
701C
7038
7CF8
3FF0
0FE0
ENDCHAR
STARTCHAR p
ENCODING 112
SWIDTH 599 0
DWIDTH 16 0
BBX 13 20 2 -7
BITMAP
EFC0
FFE0
FFF0
F070
E078
E038
E038
E038
E038
F070
F9F0
FFE0
EFC0
E000
E000
E000
E000
E000
E000
E000
ENDCHAR
STARTCHAR q
ENCODING 113
SWIDTH 599 0
DWIDTH 16 0
BBX 13 20 1 -7
BITMAP
0FB8
3FF8
7FF8
7078
F038
E038
E018
E038
F038
7038
7CF8
3FF8
1FB8
0038
0038
0038
0038
0038
0038
0038
ENDCHAR
STARTCHAR r
ENCODING 114
SWIDTH 374 0
DWIDTH 10 0
BBX 8 13 2 0
BITMAP
EF
FF
FE
F0
E0
E0
E0
E0
E0
E0
E0
E0
E0
ENDCHAR
STARTCHAR s
ENCODING 115
SWIDTH 405 0
DWIDTH 11 0
BBX 9 13 1 0
BITMAP
3E00
7F00
7700
7000
7000
7C00
3F00
0F80
0380
2380
F780
7F00
3E00
ENDCHAR
STARTCHAR t
ENCODING 116
SWIDTH 273 0
DWIDTH 7 0
BBX 6 18 1 0
BITMAP
70
70
70
70
70
FC
FC
FC
70
70
70
70
70
70
70
70
70
70
ENDCHAR
STARTCHAR u
ENCODING 117
SWIDTH 544 0
DWIDTH 15 0
BBX 11 13 2 0
BITMAP
E0E0
E0E0
E0E0
E0E0
E0E0
E0E0
E0E0
E0E0
E0E0
E1E0
F3C0
7FC0
3F80
ENDCHAR
STARTCHAR v
ENCODING 118
SWIDTH 502 0
DWIDTH 14 0
BBX 13 13 0 0
BITMAP
F038
7078
7870
3870
38E0
1CE0
1DC0
0FC0
0F80
0780
0700
0300
0200
ENDCHAR
STARTCHAR w
ENCODING 119
SWIDTH 773 0
DWIDTH 21 0
BBX 21 14 0 0
BITMAP
002000
F02078
707070
7870F0
3870E0
38F9E0
1CF9C0
1DDDC0
0FDF80
0F8F80
078F00
070700
030600
030600
ENDCHAR
STARTCHAR x
ENCODING 120
SWIDTH 558 0
DWIDTH 15 0
BBX 14 13 1 0
BITMAP
F078
78F0
3CE0
1DE0
0FC0
0F80
0F80
0FC0
1DC0
3CE0
78F0
F078
E03C
ENDCHAR
STARTCHAR y
ENCODING 121
SWIDTH 543 0
DWIDTH 15 0
BBX 14 20 0 -7
BITMAP
F01C
703C
7838
3838
1C70
1C70
0EE0
0FE0
07C0
07C0
0380
0780
0700
0F00
0E00
1E00
1C00
3C00
3800
7800
ENDCHAR
STARTCHAR z
ENCODING 122
SWIDTH 543 0
DWIDTH 15 0
BBX 13 13 1 0
BITMAP
7FF8
7FF0
7FF0
01E0
03C0
0780
0700
0E00
1E00
3C00
7FF8
FFF8
FFF8
ENDCHAR
STARTCHAR braceleft
ENCODING 123
SWIDTH 357 0
DWIDTH 10 0
BBX 7 28 1 -6
BITMAP
1E
3E
3C
38
38
38
38
38
38
38
38
78
F0
E0
F0
38
38
38
38
38
38
38
38
38
38
3E
1E
06
ENDCHAR
STARTCHAR bar
ENCODING 124
SWIDTH 565 0
DWIDTH 15 0
BBX 3 25 6 -5
BITMAP
E0
E0
E0
E0
E0
E0
E0
E0
E0
E0
E0
E0
E0
E0
E0
E0
E0
E0
E0
E0
E0
E0
E0
E0
E0
ENDCHAR
STARTCHAR braceright
ENCODING 125
SWIDTH 357 0
DWIDTH 10 0
BBX 7 28 1 -6
BITMAP
F8
F8
3C
1C
1C
1C
1C
1C
1C
1C
1C
1C
1E
0E
1E
1C
1C
1C
1C
1C
1C
1C
1C
1C
3C
F8
F8
E0
ENDCHAR
STARTCHAR asciitilde
ENCODING 126
SWIDTH 753 0
DWIDTH 20 0
BBX 15 4 3 18
BITMAP
3F0E
7FFC
FFF8
C1F0
ENDCHAR
STARTCHAR nonbreakingspace
ENCODING 160
SWIDTH 308 0
DWIDTH 8 0
BBX 1 1 0 0
BITMAP
00
ENDCHAR
STARTCHAR exclamdown
ENCODING 161
SWIDTH 331 0
DWIDTH 9 0
BBX 3 21 3 -5
BITMAP
E0
E0
E0
40
00
E0
E0
E0
E0
E0
E0
E0
E0
E0
E0
E0
E0
E0
E0
E0
E0
ENDCHAR
STARTCHAR cent
ENCODING 162
SWIDTH 617 0
DWIDTH 17 0
BBX 11 19 2 1
BITMAP
0300
0300
0300
07C0
1FE0
3FE0
7860
7000
7000
E000
E000
7000
7020
7CE0
3FE0
1FE0
0300
0300
0300
ENDCHAR
STARTCHAR sterling
ENCODING 163
SWIDTH 617 0
DWIDTH 17 0
BBX 15 21 1 0
BITMAP
0180
0FF0
1FF8
3C7C
781C
781C
701C
7018
7800
3800
3C00
FFC0
FFC0
0E00
0E00
0E00
0E00
3F0E
7FFE
FFFC
E1F8
ENDCHAR
STARTCHAR currency
ENCODING 164
SWIDTH 617 0
DWIDTH 17 0
BBX 18 17 -1 3
BITMAP
600080
F0C1C0
7FFB80
3FFF00
1E1E00
1C0700
380700
380380
380380
380380
380380
3C0700
1E0F00
1FFF00
3FFF80
73F3C0
6000C0
ENDCHAR
STARTCHAR yen
ENCODING 165
SWIDTH 617 0
DWIDTH 17 0
BBX 15 20 1 0
BITMAP
E01E
701C
703C
3838
3C70
1C70
FEFE
FFFE
FFFE
07C0
0780
FFFE
FFFE
0380
0380
0380
0380
0380
0380
0380
ENDCHAR
STARTCHAR brokenbar
ENCODING 166
SWIDTH 565 0
DWIDTH 15 0
BBX 3 25 6 -5
BITMAP
E0
E0
E0
E0
E0
E0
E0
E0
E0
E0
00
00
00
00
00
E0
E0
E0
E0
E0
E0
E0
E0
E0
E0
ENDCHAR
STARTCHAR section
ENCODING 167
SWIDTH 617 0
DWIDTH 17 0
BBX 12 28 2 -6
BITMAP
1FC0
3FE0
3CF0
7070
7070
7030
7000
3C00
1F80
3FE0
7FF0
7070
7070
E030
7070
7070
7FF0
1FC0
0FC0
01E0
00F0
0070
E070
F070
78E0
7FE0
3FC0
0E00
ENDCHAR
STARTCHAR dieresis
ENCODING 168
SWIDTH 565 0
DWIDTH 15 0
BBX 9 4 3 15
BITMAP
6300
F380
F380
6380
ENDCHAR
STARTCHAR copyright
ENCODING 169
SWIDTH 857 0
DWIDTH 23 0
BBX 21 21 1 0
BITMAP
00F800
03FF00
0E0380
1800C0
301060
60FE30
63FE30
470218
C60018
C60018
CE0018
CE0018
C60018
C70018
438618
61FE30
30FC70
380060
1C01C0
0F0780
03FE00
ENDCHAR
STARTCHAR ordfeminine
ENCODING 170
SWIDTH 409 0
DWIDTH 11 0
BBX 8 8 1 12
BITMAP
3F
7F
E3
C1
C1
E3
7F
3F
ENDCHAR
STARTCHAR guillemotleft
ENCODING 171
SWIDTH 575 0
DWIDTH 16 0
BBX 13 13 1 0
BITMAP
0430
0E38
1C70
3CE0
39C0
71C0
E380
71C0
39E0
1CE0
1C70
0E38
0410
ENDCHAR
STARTCHAR logicalnot
ENCODING 172
SWIDTH 565 0
DWIDTH 15 0
BBX 13 8 1 0
BITMAP
FFF8
FFF8
FFF8
0038
0038
0038
0038
0038
ENDCHAR
STARTCHAR softhyphen
ENCODING 173
SWIDTH 217 0
DWIDTH 6 0
BBX 6 3 0 5
BITMAP
FC
FC
FC
ENDCHAR
STARTCHAR registered
ENCODING 174
SWIDTH 857 0
DWIDTH 23 0
BBX 21 21 1 0
BITMAP
00F800
03FF00
0E0380
1800C0
300060
61F830
61FC30
418C18
C18C18
C18C18
C1FC18
C1F018
C1F018
C1B818
419C18
618C30
318E70
380060
1C01C0
0F0780
03FE00
ENDCHAR
STARTCHAR macron
ENCODING 175
SWIDTH 565 0
DWIDTH 15 0
BBX 9 3 3 15
BITMAP
FF80
FF80
FF80
ENDCHAR
STARTCHAR degree
ENCODING 176
SWIDTH 641 0
DWIDTH 17 0
BBX 8 8 5 13
BITMAP
18
7E
EE
C3
C3
C7
EE
7C
ENDCHAR
STARTCHAR plusminus
ENCODING 177
SWIDTH 617 0
DWIDTH 17 0
BBX 14 18 1 0
BITMAP
0380
0380
0380
0380
0380
0380
FFFC
FFFC
FFFC
0380
0380
0380
0380
0380
0000
0000
FFFC
FFFC
ENDCHAR
STARTCHAR twosuperior
ENCODING 178
SWIDTH 437 0
DWIDTH 12 0
BBX 9 13 1 8
BITMAP
0800
3E00
7300
6380
0180
0300
0700
0600
0C00
1800
3800
7F80
FF80
ENDCHAR
STARTCHAR threesuperior
ENCODING 179
SWIDTH 437 0
DWIDTH 12 0
BBX 8 13 1 8
BITMAP
08
3E
77
63
03
0F
0E
07
03
C3
63
7F
3E
ENDCHAR
STARTCHAR acute
ENCODING 180
SWIDTH 565 0
DWIDTH 15 0
BBX 5 5 7 15
BITMAP
38
78
70
E0
C0
ENDCHAR
STARTCHAR mu
ENCODING 181
SWIDTH 544 0
DWIDTH 15 0
BBX 11 20 2 -7
BITMAP
E0E0
E0E0
E0E0
E0E0
E0E0
E0E0
E0E0
E0E0
E0E0
E1E0
F3C0
FFC0
FF80
E000
E000
E000
E000
E000
E000
E000
ENDCHAR
STARTCHAR paragraph
ENCODING 182
SWIDTH 617 0
DWIDTH 17 0
BBX 15 23 0 -3
BITMAP
1FFE
7FFE
7F18
7F18
FF18
7F18
7F18
7F18
3F18
0F18
0718
0718
0718
0718
0718
0718
0718
0718
0718
0718
0718
0718
0718
ENDCHAR
STARTCHAR periodcentered
ENCODING 183
SWIDTH 308 0
DWIDTH 8 0
BBX 4 4 2 8
BITMAP
60
F0
F0
60
ENDCHAR
STARTCHAR cedilla
ENCODING 184
SWIDTH 565 0
DWIDTH 15 0
BBX 5 4 5 -6
BITMAP
38
38
70
E0
ENDCHAR
STARTCHAR onesuperior
ENCODING 185
SWIDTH 437 0
DWIDTH 12 0
BBX 4 12 3 8
BITMAP
70
F0
30
30
30
30
30
30
30
30
30
30
ENDCHAR
STARTCHAR ordmasculine
ENCODING 186
SWIDTH 410 0
DWIDTH 11 0
BBX 9 8 1 12
BITMAP
3E00
7F00
E380
C180
C180
6380
7F00
3E00
ENDCHAR
STARTCHAR guillemotright
ENCODING 187
SWIDTH 575 0
DWIDTH 16 0
BBX 12 13 2 0
BITMAP
4300
E780
7380
71C0
38E0
1CF0
0E70
1CF0
38E0
71C0
F380
E700
4100
ENDCHAR
STARTCHAR onequarter
ENCODING 188
SWIDTH 967 0
DWIDTH 26 0
BBX 23 21 2 0
BITMAP
000080
780180
F80180
180300
180300
180600
180600
180C00
181804
181804
18300C
18301C
18601C
00603C
00C06C
0180EC
0180CC
0301FE
0303FE
06000C
04000C
ENDCHAR
STARTCHAR onehalf
ENCODING 189
SWIDTH 967 0
DWIDTH 26 0
BBX 23 21 2 0
BITMAP
000080
780180
F80180
180300
180300
180600
180600
180C00
181800
1818F8
1831DC
18318E
186306
00600C
00C01C
018018
018030
030070
0300E0
0601FE
0403FE
ENDCHAR
STARTCHAR threequarters
ENCODING 190
SWIDTH 967 0
DWIDTH 26 0
BBX 24 21 1 0
BITMAP
100040
7E00C0
EE00C0
C30180
030180
0E0300
1E0300
0E0600
030C02
C30C02
C71806
FE180E
7C300E
00201E
006036
00C076
00C066
0180FF
0181FF
030006
020006
ENDCHAR
STARTCHAR questiondown
ENCODING 191
SWIDTH 489 0
DWIDTH 13 0
BBX 10 21 2 -5
BITMAP
1C00
1C00
1C00
0800
0000
1E00
7F00
7F80
E380
E380
0380
1F80
7F00
FC00
F000
E1C0
E1C0
E380
FF80
7F00
3E00
ENDCHAR
STARTCHAR Agrave
ENCODING 192
SWIDTH 740 0
DWIDTH 20 0
BBX 20 27 0 0
BITMAP
038000
03C000
01E000
007000
002000
000000
002000
006000
007000
00F000
00F000
01F800
01F800
03DC00
039C00
078E00
070E00
070F00
0E0700
0FFF80
1FFF80
1FFF80
3801C0
3801C0
7801E0
7000E0
F000F0
ENDCHAR
STARTCHAR Aacute
ENCODING 193
SWIDTH 740 0
DWIDTH 20 0
BBX 20 27 0 0
BITMAP
001C00
003C00
007800
00E000
004000
000000
002000
006000
007000
00F000
00F000
01F800
01F800
03DC00
039C00
078E00
070E00
070F00
0E0700
0FFF80
1FFF80
1FFF80
3801C0
3801C0
7801E0
7000E0
F000F0
ENDCHAR
STARTCHAR Acircumflex
ENCODING 194
SWIDTH 740 0
DWIDTH 20 0
BBX 20 28 0 0
BITMAP
002000
007000
01F800
03FC00
039E00
010000
000000
002000
006000
007000
00F000
00F000
01F800
01F800
03DC00
039C00
078E00
070E00
070F00
0E0700
0FFF80
1FFF80
1FFF80
3801C0
3801C0
7801E0
7000E0
F000F0
ENDCHAR
STARTCHAR Atilde
ENCODING 195
SWIDTH 740 0
DWIDTH 20 0
BBX 20 26 0 0
BITMAP
03E600
07FE00
067E00
020800
000000
002000
006000
007000
00F000
00F000
01F800
01F800
03DC00
039C00
078E00
070E00
070F00
0E0700
0FFF80
1FFF80
1FFF80
3801C0
3801C0
7801E0
7000E0
F000F0
ENDCHAR
STARTCHAR Adieresis
ENCODING 196
SWIDTH 740 0
DWIDTH 20 0
BBX 20 26 0 0
BITMAP
038E00
079E00
039E00
010C00
000000
002000
006000
007000
00F000
00F000
01F800
01F800
03DC00
039C00
078E00
070E00
070F00
0E0700
0FFF80
1FFF80
1FFF80
3801C0
3801C0
7801E0
7000E0
F000F0
ENDCHAR
STARTCHAR Aring
ENCODING 197
SWIDTH 740 0
DWIDTH 20 0
BBX 20 28 0 0
BITMAP
007000
00F800
019800
019800
00F800
006000
000000
002000
006000
007000
00F000
00F000
01F800
01F800
03DC00
039C00
078E00
070E00
070F00
0E0700
0FFF80
1FFF80
1FFF80
3801C0
3801C0
7801E0
7000E0
F000F0
ENDCHAR
STARTCHAR AE
ENCODING 198
SWIDTH 1047 0
DWIDTH 28 0
BBX 27 20 1 0
BITMAP
007FC000
00FFE000
00FFE000
01F00000
01F00000
03F80000
03B80000
07BFF800
071FFC00
0F1FFC00
0E0E0000
1E0E0000
1FFF0000
3FFF0000
3FFF0000
78038000
70038000
F001FFC0
E001FFC0
E001FFE0
ENDCHAR
STARTCHAR Ccedilla
ENCODING 199
SWIDTH 700 0
DWIDTH 19 0
BBX 16 28 1 -7
BITMAP
0078
03FF
07FF
1F87
1E01
3C00
7800
7000
7000
F000
F000
F000
7000
7000
7000
7800
3C00
1E01
0FFF
07FF
01FE
0000
0000
0070
00F0
00E0
01C0
0080
ENDCHAR
STARTCHAR Egrave
ENCODING 200
SWIDTH 565 0
DWIDTH 15 0
BBX 12 28 2 0
BITMAP
0800
1C00
1E00
0F00
0780
0100
0000
0000
FFF0
FFF0
FFF0
F000
F000
F000
F000
FFE0
FFE0
FFE0
F000
F000
F000
F000
F000
F000
F000
FFF0
FFF0
FFF0
ENDCHAR
STARTCHAR Eacute
ENCODING 201
SWIDTH 565 0
DWIDTH 15 0
BBX 12 27 2 0
BITMAP
01C0
03C0
0780
0E00
0400
0000
0000
FFF0
FFF0
FFF0
F000
F000
F000
F000
FFE0
FFE0
FFE0
F000
F000
F000
F000
F000
F000
F000
FFF0
FFF0
FFF0
ENDCHAR
STARTCHAR Ecircumflex
ENCODING 202
SWIDTH 565 0
DWIDTH 15 0
BBX 12 28 2 0
BITMAP
0600
0F00
1F80
3FC0
39C0
1080
0000
0000
FFF0
FFF0
FFF0
F000
F000
F000
F000
FFE0
FFE0
FFE0
F000
F000
F000
F000
F000
F000
F000
FFF0
FFF0
FFF0
ENDCHAR
STARTCHAR Edieresis
ENCODING 203
SWIDTH 565 0
DWIDTH 15 0
BBX 12 26 2 0
BITMAP
38E0
79E0
79E0
1040
0000
0000
FFF0
FFF0
FFF0
F000
F000
F000
F000
FFE0
FFE0
FFE0
F000
F000
F000
F000
F000
F000
F000
FFF0
FFF0
FFF0
ENDCHAR
STARTCHAR Igrave
ENCODING 204
SWIDTH 294 0
DWIDTH 8 0
BBX 7 28 -1 0
BITMAP
20
70
F8
3C
1E
00
00
00
1E
1E
1E
1E
1E
1E
1E
1E
1E
1E
1E
1E
1E
1E
1E
1E
1E
1E
1E
1E
ENDCHAR
STARTCHAR Iacute
ENCODING 205
SWIDTH 294 0
DWIDTH 8 0
BBX 6 28 2 0
BITMAP
08
1C
3C
78
F0
40
00
00
F0
F0
F0
F0
F0
F0
F0
F0
F0
F0
F0
F0
F0
F0
F0
F0
F0
F0
F0
F0
ENDCHAR
STARTCHAR Icircumflex
ENCODING 206
SWIDTH 294 0
DWIDTH 8 0
BBX 8 28 0 0
BITMAP
10
3C
7E
FF
E7
42
00
00
3C
3C
3C
3C
3C
3C
3C
3C
3C
3C
3C
3C
3C
3C
3C
3C
3C
3C
3C
3C
ENDCHAR
STARTCHAR Idieresis
ENCODING 207
SWIDTH 294 0
DWIDTH 8 0
BBX 8 26 0 0
BITMAP
E7
E7
E7
42
00
00
3C
3C
3C
3C
3C
3C
3C
3C
3C
3C
3C
3C
3C
3C
3C
3C
3C
3C
3C
3C
ENDCHAR
STARTCHAR Eth
ENCODING 208
SWIDTH 726 0
DWIDTH 20 0
BBX 17 20 1 0
BITMAP
7FE000
7FF800
7FFC00
781E00
780F00
780700
780780
780380
FF8380
FF8380
FF8380
780380
780380
780780
780F00
781F00
783E00
7FFC00
7FF000
7FC000
ENDCHAR
STARTCHAR Ntilde
ENCODING 209
SWIDTH 844 0
DWIDTH 23 0
BBX 18 26 2 0
BITMAP
07CC00
0FFC00
0EFC00
001000
800000
C00000
E001C0
F001C0
F801C0
F801C0
FC01C0
FE01C0
FF01C0
F781C0
F3C1C0
F1E1C0
F0F1C0
F079C0
F03DC0
F01FC0
F00FC0
F007C0
F003C0
F001C0
F000C0
F00040
ENDCHAR
STARTCHAR Ograve
ENCODING 210
SWIDTH 893 0
DWIDTH 24 0
BBX 22 27 1 0
BITMAP
00C000
01E000
007000
003800
000000
000000
007800
03FF00
07FFC0
1F87E0
1E01F0
3C0070
780078
700038
700038
F0003C
F0001C
F0001C
70003C
700038
700038
780078
3C00F0
1E01E0
0FFFC0
07FF80
01FE00
ENDCHAR
STARTCHAR Oacute
ENCODING 211
SWIDTH 893 0
DWIDTH 24 0
BBX 22 27 1 0
BITMAP
000E00
001E00
003C00
007000
002000
000000
007800
03FF00
07FFC0
1F87E0
1E01F0
3C0070
780078
700038
700038
F0003C
F0001C
F0001C
70003C
700038
700038
780078
3C00F0
1E01E0
0FFFC0
07FF80
01FE00
ENDCHAR
STARTCHAR Ocircumflex
ENCODING 212
SWIDTH 893 0
DWIDTH 24 0
BBX 22 28 1 0
BITMAP
001000
007800
00FC00
01FE00
01CF00
008400
000000
007800
03FF00
07FFC0
1F87E0
1E01F0
3C0070
780078
700038
700038
F0003C
F0001C
F0001C
70003C
700038
700038
780078
3C00F0
1E01E0
0FFFC0
07FF80
01FE00
ENDCHAR
STARTCHAR Otilde
ENCODING 213
SWIDTH 893 0
DWIDTH 24 0
BBX 22 26 1 0
BITMAP
01E300
03FF00
033E00
000C00
000000
007800
03FF00
07FFC0
1F87E0
1E01F0
3C0070
780078
700038
700038
F0003C
F0001C
F0001C
70003C
700038
700038
780078
3C00F0
1E01E0
0FFFC0
07FF80
01FE00
ENDCHAR
STARTCHAR Odieresis
ENCODING 214
SWIDTH 893 0
DWIDTH 24 0
BBX 22 26 1 0
BITMAP
01C600
03CF00
03CF00
018200
000000
007800
03FF00
07FFC0
1F87E0
1E01F0
3C0070
780078
700038
700038
F0003C
F0001C
F0001C
70003C
700038
700038
780078
3C00F0
1E01E0
0FFFC0
07FF80
01FE00
ENDCHAR
STARTCHAR multiply
ENCODING 215
SWIDTH 617 0
DWIDTH 17 0
BBX 11 11 3 5
BITMAP
C060
E0E0
71C0
3B80
1F00
0E00
1F00
3B80
71C0
E0E0
C060
ENDCHAR
STARTCHAR Oslash
ENCODING 216
SWIDTH 892 0
DWIDTH 24 0
BBX 22 21 1 0
BITMAP
007810
03FF38
07FFF8
1F87F0
1E01F0
3C03F0
7807F8
700F38
701E38
F03C3C
F0781C
F0F01C
71E03C
73C038
778038
7F0078
3E00F0
3E01E0
7FFFC0
F7FF80
61FE00
ENDCHAR
STARTCHAR Ugrave
ENCODING 217
SWIDTH 738 0
DWIDTH 20 0
BBX 16 27 2 0
BITMAP
0E00
0F00
0780
01C0
0080
0000
0000
F00F
F00F
F00F
F00F
F00F
F00F
F00F
F00F
F00F
F00F
F00F
F00F
F00F
F00E
700E
700E
781E
3FFC
1FF8
0FF0
ENDCHAR
STARTCHAR Uacute
ENCODING 218
SWIDTH 738 0
DWIDTH 20 0
BBX 16 27 2 0
BITMAP
0070
00F0
01E0
0380
0100
0000
0000
F00F
F00F
F00F
F00F
F00F
F00F
F00F
F00F
F00F
F00F
F00F
F00F
F00F
F00E
700E
700E
781E
3FFC
1FF8
0FF0
ENDCHAR
STARTCHAR Ucircumflex
ENCODING 219
SWIDTH 738 0
DWIDTH 20 0
BBX 16 28 2 0
BITMAP
0100
03C0
07E0
0FF0
0E70
0420
0000
0000
F00F
F00F
F00F
F00F
F00F
F00F
F00F
F00F
F00F
F00F
F00F
F00F
F00F
F00E
700E
700E
781E
3FFC
1FF8
0FF0
ENDCHAR
STARTCHAR Udieresis
ENCODING 220
SWIDTH 738 0
DWIDTH 20 0
BBX 16 26 2 0
BITMAP
0C70
1E78
1E78
0830
0000
0000
F00F
F00F
F00F
F00F
F00F
F00F
F00F
F00F
F00F
F00F
F00F
F00F
F00F
F00E
700E
700E
781E
3FFC
1FF8
0FF0
ENDCHAR
STARTCHAR Yacute
ENCODING 221
SWIDTH 600 0
DWIDTH 16 0
BBX 16 27 0 0
BITMAP
0038
0078
00E0
01C0
0080
0000
0000
F00F
700E
381E
3C1C
1C3C
1E78
0E70
0FF0
07E0
03E0
03C0
01C0
01C0
01C0
01C0
01C0
01C0
01C0
01C0
01C0
ENDCHAR
STARTCHAR Thorn
ENCODING 222
SWIDTH 540 0
DWIDTH 15 0
BBX 12 20 2 0
BITMAP
F000
F000
F800
FF80
FFC0
F3E0
F0F0
F070
F070
F070
F0F0
F1E0
FFC0
FF80
F800
F000
F000
F000
F000
F000
ENDCHAR
STARTCHAR germandbls
ENCODING 223
SWIDTH 622 0
DWIDTH 17 0
BBX 15 23 1 0
BITMAP
0300
1FE0
3FF0
7870
7038
7038
7038
7038
7070
73F0
F3E0
F3F8
F078
701C
701C
701C
701E
701C
701C
703C
71F8
73F0
73E0
ENDCHAR
STARTCHAR agrave
ENCODING 224
SWIDTH 599 0
DWIDTH 16 0
BBX 13 21 1 0
BITMAP
0400
1E00
0E00
0700
0380
0180
0000
0000
1FB8
3FF8
7FF8
7078
F038
E038
E018
E038
F038
7038
7CF8
3FF8
1FB8
ENDCHAR
STARTCHAR aacute
ENCODING 225
SWIDTH 599 0
DWIDTH 16 0
BBX 13 20 1 0
BITMAP
00E0
01E0
03C0
0380
0300
0000
0000
1FB8
3FF8
7FF8
7078
F038
E038
E018
E038
F038
7038
7CF8
3FF8
1FB8
ENDCHAR
STARTCHAR acircumflex
ENCODING 226
SWIDTH 599 0
DWIDTH 16 0
BBX 13 20 1 0
BITMAP
0380
07C0
0FE0
1CF0
0860
0000
0000
1FB8
3FF8
7FF8
7078
F038
E038
E018
E038
F038
7038
7CF8
3FF8
1FB8
ENDCHAR
STARTCHAR atilde
ENCODING 227
SWIDTH 599 0
DWIDTH 16 0
BBX 13 19 1 0
BITMAP
0E10
1FF8
3FF0
10E0
0000
0000
1FB8
3FF8
7FF8
7078
F038
E038
E018
E038
F038
7038
7CF8
3FF8
1FB8
ENDCHAR
STARTCHAR adieresis
ENCODING 228
SWIDTH 599 0
DWIDTH 16 0
BBX 13 19 1 0
BITMAP
1860
1CF0
1CF0
1C60
0000
0000
1FB8
3FF8
7FF8
7078
F038
E038
E018
E038
F038
7038
7CF8
3FF8
1FB8
ENDCHAR
STARTCHAR aring
ENCODING 229
SWIDTH 599 0
DWIDTH 16 0
BBX 13 21 1 0
BITMAP
0100
0780
0CC0
0CC0
07C0
0780
0000
0000
1FB8
3FF8
7FF8
7078
F038
E038
E018
E038
F038
7038
7CF8
3FF8
1FB8
ENDCHAR
STARTCHAR ae
ENCODING 230
SWIDTH 860 0
DWIDTH 23 0
BBX 21 13 1 0
BITMAP
3F8FC0
3FFFE0
3BFFF0
00F870
007038
3FFFF8
7FFFF8
79F000
E0F020
E0F838
F1FCF0
7FFFF0
3F8FC0
ENDCHAR
STARTCHAR ccedilla
ENCODING 231
SWIDTH 476 0
DWIDTH 13 0
BBX 11 19 1 -6
BITMAP
0FC0
1FE0
3FE0
7820
7000
E000
E000
E000
F000
7020
7CE0
3FE0
0FE0
0000
0000
0700
0700
0E00
1C00
ENDCHAR
STARTCHAR egrave
ENCODING 232
SWIDTH 553 0
DWIDTH 15 0
BBX 13 20 1 0
BITMAP
1C00
1E00
0E00
0700
0300
0000
0000
1FC0
3FE0
7DF0
7070
F070
FFF8
FFF8
E000
F020
7070
7CF0
3FE0
1FC0
ENDCHAR
STARTCHAR eacute
ENCODING 233
SWIDTH 553 0
DWIDTH 15 0
BBX 13 20 1 0
BITMAP
01C0
03C0
0380
0700
0600
0000
0000
1FC0
3FE0
7DF0
7070
F070
FFF8
FFF8
E000
F020
7070
7CF0
3FE0
1FC0
ENDCHAR
STARTCHAR ecircumflex
ENCODING 234
SWIDTH 553 0
DWIDTH 15 0
BBX 13 21 1 0
BITMAP
0200
0700
0F80
1FC0
3DE0
18C0
0000
0000
1FC0
3FE0
7DF0
7070
F070
FFF8
FFF8
E000
F020
7070
7CF0
3FE0
1FC0
ENDCHAR
STARTCHAR edieresis
ENCODING 235
SWIDTH 553 0
DWIDTH 15 0
BBX 13 19 1 0
BITMAP
18C0
3CE0
3DE0
18E0
0000
0000
1FC0
3FE0
7DF0
7070
F070
FFF8
FFF8
E000
F020
7070
7CF0
3FE0
1FC0
ENDCHAR
STARTCHAR igrave
ENCODING 236
SWIDTH 249 0
DWIDTH 7 0
BBX 6 21 -1 0
BITMAP
20
E0
F0
78
38
18
00
00
1C
1C
1C
1C
1C
1C
1C
1C
1C
1C
1C
1C
1C
ENDCHAR
STARTCHAR iacute
ENCODING 237
SWIDTH 249 0
DWIDTH 7 0
BBX 5 21 2 0
BITMAP
10
18
38
70
E0
C0
00
00
E0
E0
E0
E0
E0
E0
E0
E0
E0
E0
E0
E0
E0
ENDCHAR
STARTCHAR icircumflex
ENCODING 238
SWIDTH 249 0
DWIDTH 7 0
BBX 9 20 -1 0
BITMAP
1C00
3E00
7F00
F780
6300
0000
0000
1C00
1C00
1C00
1C00
1C00
1C00
1C00
1C00
1C00
1C00
1C00
1C00
1C00
ENDCHAR
STARTCHAR idieresis
ENCODING 239
SWIDTH 249 0
DWIDTH 7 0
BBX 9 19 -1 0
BITMAP
6300
F780
F780
6700
0000
0000
1C00
1C00
1C00
1C00
1C00
1C00
1C00
1C00
1C00
1C00
1C00
1C00
1C00
ENDCHAR
STARTCHAR eth
ENCODING 240
SWIDTH 601 0
DWIDTH 16 0
BBX 14 22 1 0
BITMAP
70C0
7DC0
1F80
1F00
3B80
21C0
01E0
00F0
0070
0FF8
1FF8
3FF8
783C
703C
E01C
E01C
E01C
F01C
7038
7CF8
3FF0
0FE0
ENDCHAR
STARTCHAR ntilde
ENCODING 241
SWIDTH 548 0
DWIDTH 15 0
BBX 11 19 2 0
BITMAP
3840
7FE0
FFC0
4780
0000
0000
EF80
FFC0
FBE0
E0E0
E0E0
E0E0
E0E0
E0E0
E0E0
E0E0
E0E0
E0E0
E0E0
ENDCHAR
STARTCHAR ograve
ENCODING 242
SWIDTH 601 0
DWIDTH 16 0
BBX 14 21 1 0
BITMAP
0400
0E00
0E00
0700
0380
0180
0000
0000
0FC0
1FF0
3FF8
7038
703C
E01C
E01C
E01C
701C
7038
7CF8
3FF0
0FE0
ENDCHAR
STARTCHAR oacute
ENCODING 243
SWIDTH 601 0
DWIDTH 16 0
BBX 14 20 1 0
BITMAP
00E0
01E0
03C0
0380
0300
0000
0000
0FC0
1FF0
3FF8
7038
703C
E01C
E01C
E01C
701C
7038
7CF8
3FF0
0FE0
ENDCHAR
STARTCHAR ocircumflex
ENCODING 244
SWIDTH 601 0
DWIDTH 16 0
BBX 14 20 1 0
BITMAP
0300
0780
0FE0
1CF0
0860
0000
0000
0FC0
1FF0
3FF8
7038
703C
E01C
E01C
E01C
701C
7038
7CF8
3FF0
0FE0
ENDCHAR
STARTCHAR otilde
ENCODING 245
SWIDTH 601 0
DWIDTH 16 0
BBX 14 19 1 0
BITMAP
0E10
1FF8
3FF0
10E0
0000
0000
0FC0
1FF0
3FF8
7038
703C
E01C
E01C
E01C
701C
7038
7CF8
3FF0
0FE0
ENDCHAR
STARTCHAR odieresis
ENCODING 246
SWIDTH 601 0
DWIDTH 16 0
BBX 14 19 1 0
BITMAP
1860
1CF0
1CF0
1C60
0000
0000
0FC0
1FF0
3FF8
7038
703C
E01C
E01C
E01C
701C
7038
7CF8
3FF0
0FE0
ENDCHAR
STARTCHAR divide
ENCODING 247
SWIDTH 617 0
DWIDTH 17 0
BBX 14 13 1 4
BITMAP
0300
0380
0380
0100
0000
FFFC
FFFC
FFFC
0000
0300
0380
0380
0100
ENDCHAR
STARTCHAR oslash
ENCODING 248
SWIDTH 601 0
DWIDTH 16 0
BBX 14 14 1 0
BITMAP
0004
0FCC
1FF8
3FF8
7878
70FC
E19C
E31C
E61C
7C1C
7C38
7FF8
7FF0
CFE0
ENDCHAR
STARTCHAR ugrave
ENCODING 249
SWIDTH 544 0
DWIDTH 15 0
BBX 11 21 2 0
BITMAP
1000
3800
3800
1C00
0E00
0600
0000
0000
E0E0
E0E0
E0E0
E0E0
E0E0
E0E0
E0E0
E0E0
E0E0
E1E0
F3C0
7FC0
3F80
ENDCHAR
STARTCHAR uacute
ENCODING 250
SWIDTH 544 0
DWIDTH 15 0
BBX 11 20 2 0
BITMAP
0380
0380
0700
0E00
0C00
0000
0000
E0E0
E0E0
E0E0
E0E0
E0E0
E0E0
E0E0
E0E0
E0E0
E1E0
F3C0
7FC0
3F80
ENDCHAR
STARTCHAR ucircumflex
ENCODING 251
SWIDTH 544 0
DWIDTH 15 0
BBX 11 20 2 0
BITMAP
0E00
1F00
3F80
73C0
2180
0000
0000
E0E0
E0E0
E0E0
E0E0
E0E0
E0E0
E0E0
E0E0
E0E0
E1E0
F3C0
7FC0
3F80
ENDCHAR
STARTCHAR udieresis
ENCODING 252
SWIDTH 544 0
DWIDTH 15 0
BBX 11 19 2 0
BITMAP
3180
73C0
73C0
7180
0000
0000
E0E0
E0E0
E0E0
E0E0
E0E0
E0E0
E0E0
E0E0
E0E0
E1E0
F3C0
7FC0
3F80
ENDCHAR
STARTCHAR yacute
ENCODING 253
SWIDTH 543 0
DWIDTH 15 0
BBX 14 28 0 -7
BITMAP
0040
0070
00F0
01E0
0380
0300
0000
0000
F01C
703C
7838
3838
1C70
1C70
0EE0
0FE0
07C0
07C0
0380
0780
0700
0F00
0E00
1E00
1C00
3C00
3800
7800
ENDCHAR
STARTCHAR thorn
ENCODING 254
SWIDTH 599 0
DWIDTH 16 0
BBX 13 29 2 -7
BITMAP
E000
E000
E000
E000
E000
E000
E000
E000
E000
EFC0
FFE0
FFF0
F070
E078
E038
E038
E038
E038
F070
F9F0
FFE0
EFC0
E000
E000
E000
E000
E000
E000
E000
ENDCHAR
STARTCHAR ydieresis
ENCODING 255
SWIDTH 543 0
DWIDTH 15 0
BBX 14 26 0 -7
BITMAP
0C60
1CF0
1CF0
1C60
0000
0000
F01C
703C
7838
3838
1C70
1C70
0EE0
0FE0
07C0
07C0
0380
0780
0700
0F00
0E00
1E00
1C00
3C00
3800
7800
ENDCHAR
STARTCHAR Amacron
ENCODING 256
SWIDTH 740 0
DWIDTH 20 0
BBX 20 25 0 0
BITMAP
07FE00
07FE00
000000
000000
002000
006000
007000
00F000
00F000
01F800
01F800
03DC00
039C00
078E00
070E00
070F00
0E0700
0FFF80
1FFF80
1FFF80
3801C0
3801C0
7801E0
7000E0
F000F0
ENDCHAR
STARTCHAR amacron
ENCODING 257
SWIDTH 599 0
DWIDTH 16 0
BBX 13 18 1 0
BITMAP
1FF0
1FF0
1FF0
0000
0000
1FB8
3FF8
7FF8
7078
F038
E038
E018
E038
F038
7038
7CF8
3FF8
1FB8
ENDCHAR
STARTCHAR Abreve
ENCODING 258
SWIDTH 740 0
DWIDTH 20 0
BBX 20 27 0 0
BITMAP
070E00
030E00
03FC00
01FC00
006000
000000
002000
006000
007000
00F000
00F000
01F800
01F800
03DC00
039C00
078E00
070E00
070F00
0E0700
0FFF80
1FFF80
1FFF80
3801C0
3801C0
7801E0
7000E0
F000F0
ENDCHAR
STARTCHAR abreve
ENCODING 259
SWIDTH 599 0
DWIDTH 16 0
BBX 13 19 1 0
BITMAP
1870
1CF0
1FE0
07C0
0000
0000
1FB8
3FF8
7FF8
7078
F038
E038
E018
E038
F038
7038
7CF8
3FF8
1FB8
ENDCHAR
STARTCHAR Aogonek
ENCODING 260
SWIDTH 740 0
DWIDTH 20 0
BBX 20 28 0 -7
BITMAP
002000
006000
007000
00F000
00F000
01F800
01F800
03DC00
039C00
078E00
070E00
070F00
0E0700
0FFF80
1FFF80
1FFF80
3801C0
3801C0
7801E0
7000E0
F000F0
0000C0
000180
000380
000380
0003F0
0001F0
000040
ENDCHAR
STARTCHAR aogonek
ENCODING 261
SWIDTH 599 0
DWIDTH 16 0
BBX 14 20 1 -7
BITMAP
1FB8
3FF8
7FF8
7078
F038
E038
E018
E038
F038
7038
7CF8
3FF8
1FB8
0030
0060
00C0
00E0
00FC
00F8
0030
ENDCHAR
STARTCHAR Cacute
ENCODING 262
SWIDTH 700 0
DWIDTH 19 0
BBX 16 28 1 0
BITMAP
0008
001C
003E
0078
00F0
0040
0000
0078
03FF
07FF
1F87
1E01
3C00
7800
7000
7000
F000
F000
F000
7000
7000
7000
7800
3C00
1E01
0FFF
07FF
01FE
ENDCHAR
STARTCHAR cacute
ENCODING 263
SWIDTH 476 0
DWIDTH 13 0
BBX 11 20 1 0
BITMAP
01C0
01C0
0380
0700
0600
0000
0000
0FC0
1FE0
3FE0
7820
7000
E000
E000
E000
F000
7020
7CE0
3FE0
0FE0
ENDCHAR
STARTCHAR Ccircumflex
ENCODING 264
SWIDTH 700 0
DWIDTH 19 0
BBX 16 28 1 0
BITMAP
0020
0070
00F8
01FC
03DE
010C
0000
0078
03FF
07FF
1F87
1E01
3C00
7800
7000
7000
F000
F000
F000
7000
7000
7000
7800
3C00
1E01
0FFF
07FF
01FE
ENDCHAR
STARTCHAR ccircumflex
ENCODING 265
SWIDTH 476 0
DWIDTH 13 0
BBX 11 21 1 0
BITMAP
0200
0700
0F80
1FC0
3DE0
1840
0000
0000
0FC0
1FE0
3FE0
7820
7000
E000
E000
E000
F000
7020
7CE0
3FE0
0FE0
ENDCHAR
STARTCHAR Cdotaccent
ENCODING 266
SWIDTH 700 0
DWIDTH 19 0
BBX 16 26 1 0
BITMAP
0030
0078
0078
0030
0000
0078
03FF
07FF
1F87
1E01
3C00
7800
7000
7000
F000
F000
F000
7000
7000
7000
7800
3C00
1E01
0FFF
07FF
01FE
ENDCHAR
STARTCHAR cdotaccent
ENCODING 267
SWIDTH 476 0
DWIDTH 13 0
BBX 11 19 1 0
BITMAP
0700
0780
0780
0700
0000
0000
0FC0
1FE0
3FE0
7820
7000
E000
E000
E000
F000
7020
7CE0
3FE0
0FE0
ENDCHAR
STARTCHAR Ccaron
ENCODING 268
SWIDTH 700 0
DWIDTH 19 0
BBX 16 28 1 0
BITMAP
0184
03CE
01FC
00F8
0070
0020
0000
0078
03FF
07FF
1F87
1E01
3C00
7800
7000
7000
F000
F000
F000
7000
7000
7000
7800
3C00
1E01
0FFF
07FF
01FE
ENDCHAR
STARTCHAR ccaron
ENCODING 269
SWIDTH 476 0
DWIDTH 13 0
BBX 11 20 1 0
BITMAP
38E0
3DE0
1F80
0700
0200
0000
0000
0FC0
1FE0
3FE0
7820
7000
E000
E000
E000
F000
7020
7CE0
3FE0
0FE0
ENDCHAR
STARTCHAR Dcaron
ENCODING 270
SWIDTH 726 0
DWIDTH 20 0
BBX 16 28 2 0
BITMAP
1080
79E0
3FC0
1F80
0700
0000
0000
0000
FFC0
FFF0
FFF8
F03C
F01E
F00E
F00F
F007
F007
F007
F007
F007
F007
F00F
F01E
F03E
F07C
FFF8
FFE0
FF80
ENDCHAR
STARTCHAR dcaron
ENCODING 271
SWIDTH 708 0
DWIDTH 19 0
BBX 18 22 1 0
BITMAP
003800
003800
0039C0
0039C0
0039C0
0038C0
0039C0
003980
003800
1FB800
3FF800
7FF800
707800
F03800
E03800
E01800
E03800
F03800
703800
7CF800
3FF800
1FB800
ENDCHAR
STARTCHAR Dcroat
ENCODING 272
SWIDTH 726 0
DWIDTH 20 0
BBX 17 20 1 0
BITMAP
7FE000
7FF800
7FFC00
781E00
780F00
780700
780780
780380
FF8380
FF8380
FF8380
780380
780380
780780
780F00
781F00
783E00
7FFC00
7FF000
7FC000
ENDCHAR
STARTCHAR dcroat
ENCODING 273
SWIDTH 599 0
DWIDTH 16 0
BBX 16 22 1 0
BITMAP
0038
0038
0038
0038
01FF
01FF
0038
0038
0038
1FB8
3FF8
7FF8
7078
F038
E038
E018
E038
F038
7038
7CF8
3FF8
1FB8
ENDCHAR
STARTCHAR Emacron
ENCODING 274
SWIDTH 565 0
DWIDTH 15 0
BBX 12 25 2 0
BITMAP
7FC0
7FC0
0000
0000
0000
FFF0
FFF0
FFF0
F000
F000
F000
F000
FFE0
FFE0
FFE0
F000
F000
F000
F000
F000
F000
F000
FFF0
FFF0
FFF0
ENDCHAR
STARTCHAR emacron
ENCODING 275
SWIDTH 553 0
DWIDTH 15 0
BBX 13 18 1 0
BITMAP
3FE0
3FE0
3FE0
0000
0000
1FC0
3FE0
7DF0
7070
F070
FFF8
FFF8
E000
F020
7070
7CF0
3FE0
1FC0
ENDCHAR
STARTCHAR Ebreve
ENCODING 276
SWIDTH 565 0
DWIDTH 15 0
BBX 12 26 2 0
BITMAP
70E0
39C0
3FC0
1F80
0000
0000
FFF0
FFF0
FFF0
F000
F000
F000
F000
FFE0
FFE0
FFE0
F000
F000
F000
F000
F000
F000
F000
FFF0
FFF0
FFF0
ENDCHAR
STARTCHAR ebreve
ENCODING 277
SWIDTH 553 0
DWIDTH 15 0
BBX 13 19 1 0
BITMAP
3860
38E0
1FC0
0F80
0000
0000
1FC0
3FE0
7DF0
7070
F070
FFF8
FFF8
E000
F020
7070
7CF0
3FE0
1FC0
ENDCHAR
STARTCHAR Edotaccent
ENCODING 278
SWIDTH 565 0
DWIDTH 15 0
BBX 12 26 2 0
BITMAP
0F00
0F00
0F00
0200
0000
0000
FFF0
FFF0
FFF0
F000
F000
F000
F000
FFE0
FFE0
FFE0
F000
F000
F000
F000
F000
F000
F000
FFF0
FFF0
FFF0
ENDCHAR
STARTCHAR edotaccent
ENCODING 279
SWIDTH 553 0
DWIDTH 15 0
BBX 13 19 1 0
BITMAP
0700
0780
0780
0700
0000
0000
1FC0
3FE0
7DF0
7070
F070
FFF8
FFF8
E000
F020
7070
7CF0
3FE0
1FC0
ENDCHAR
STARTCHAR Eogonek
ENCODING 280
SWIDTH 565 0
DWIDTH 15 0
BBX 12 27 2 -7
BITMAP
FFF0
FFF0
FFF0
F000
F000
F000
F000
FFE0
FFE0
FFE0
F000
F000
F000
F000
F000
F000
F000
FFF0
FFF0
FFF0
00E0
01C0
0180
0380
03F0
01F0
0060
ENDCHAR
STARTCHAR eogonek
ENCODING 281
SWIDTH 553 0
DWIDTH 15 0
BBX 13 20 1 -7
BITMAP
1FC0
3FE0
7DF0
7070
F070
FFF8
FFF8
E000
F020
7070
7CF0
3FE0
1FC0
0300
0600
0E00
0E00
0FC0
0F80
0300
ENDCHAR
STARTCHAR Ecaron
ENCODING 282
SWIDTH 565 0
DWIDTH 15 0
BBX 12 28 2 0
BITMAP
1080
79C0
3FC0
1F00
0E00
0000
0000
0000
FFF0
FFF0
FFF0
F000
F000
F000
F000
FFE0
FFE0
FFE0
F000
F000
F000
F000
F000
F000
F000
FFF0
FFF0
FFF0
ENDCHAR
STARTCHAR ecaron
ENCODING 283
SWIDTH 553 0
DWIDTH 15 0
BBX 13 20 1 0
BITMAP
18E0
1DE0
0FC0
0780
0200
0000
0000
1FC0
3FE0
7DF0
7070
F070
FFF8
FFF8
E000
F020
7070
7CF0
3FE0
1FC0
ENDCHAR
STARTCHAR Gcircumflex
ENCODING 284
SWIDTH 842 0
DWIDTH 23 0
BBX 20 27 1 0
BITMAP
003000
007800
00FC00
03CF00
018600
000000
007800
03FF00
0FFF80
1F87E0
3E01E0
3C00C0
780000
700000
700000
F00000
F00FF0
F00FF0
700FF0
700070
700070
7800F0
3C01E0
1E03E0
0FFFC0
07FF80
01FE00
ENDCHAR
STARTCHAR gcircumflex
ENCODING 285
SWIDTH 598 0
DWIDTH 16 0
BBX 13 28 1 -7
BITMAP
0200
0700
0F80
1FC0
3DE0
1840
0000
0000
1FB8
3FF8
7FF8
7078
F038
E038
E038
E038
F038
7038
7CF8
3FF8
1FB8
0038
0038
7038
7878
3FF0
1FE0
0FC0
ENDCHAR
STARTCHAR Gbreve
ENCODING 286
SWIDTH 842 0
DWIDTH 23 0
BBX 20 27 1 0
BITMAP
038600
038600
01FE00
01FC00
007000
000000
007800
03FF00
0FFF80
1F87E0
3E01E0
3C00C0
780000
700000
700000
F00000
F00FF0
F00FF0
700FF0
700070
700070
7800F0
3C01E0
1E03E0
0FFFC0
07FF80
01FE00
ENDCHAR
STARTCHAR gbreve
ENCODING 287
SWIDTH 598 0
DWIDTH 16 0
BBX 13 26 1 -7
BITMAP
3870
1CE0
1FE0
0FC0
0000
0000
1FB8
3FF8
7FF8
7078
F038
E038
E038
E038
F038
7038
7CF8
3FF8
1FB8
0038
0038
7038
7878
3FF0
1FE0
0FC0
ENDCHAR
STARTCHAR Gdotaccent
ENCODING 288
SWIDTH 842 0
DWIDTH 23 0
BBX 20 26 1 0
BITMAP
003000
007800
007800
003000
000000
007800
03FF00
0FFF80
1F87E0
3E01E0
3C00C0
780000
700000
700000
F00000
F00FF0
F00FF0
700FF0
700070
700070
7800F0
3C01E0
1E03E0
0FFFC0
07FF80
01FE00
ENDCHAR
STARTCHAR gdotaccent
ENCODING 289
SWIDTH 598 0
DWIDTH 16 0
BBX 13 26 1 -7
BITMAP
0700
0780
0780
0700
0000
0000
1FB8
3FF8
7FF8
7078
F038
E038
E038
E038
F038
7038
7CF8
3FF8
1FB8
0038
0038
7038
7878
3FF0
1FE0
0FC0
ENDCHAR
STARTCHAR Gcedilla
ENCODING 290
SWIDTH 842 0
DWIDTH 23 0
BBX 20 29 1 -8
BITMAP
007800
03FF00
0FFF80
1F87E0
3E01E0
3C00C0
780000
700000
700000
F00000
F00FF0
F00FF0
700FF0
700070
700070
7800F0
3C01E0
1E03E0
0FFFC0
07FF80
01FE00
000000
003800
003800
003800
003800
003800
003000
001000
ENDCHAR
STARTCHAR gcedilla
ENCODING 291
SWIDTH 598 0
DWIDTH 16 0
BBX 13 28 1 -7
BITMAP
0300
0300
0200
0300
0300
0300
0000
0000
1FB8
3FF8
7FF8
7078
F038
E038
E038
E038
F038
7038
7CF8
3FF8
1FB8
0038
0038
7038
7878
3FF0
1FE0
0FC0
ENDCHAR
STARTCHAR Hcircumflex
ENCODING 292
SWIDTH 733 0
DWIDTH 20 0
BBX 15 27 2 0
BITMAP
0180
03C0
07F0
0E78
0430
0000
0000
F00E
F00E
F00E
F00E
F00E
F00E
F00E
F00E
FFFE
FFFE
FFFE
F00E
F00E
F00E
F00E
F00E
F00E
F00E
F00E
F00E
ENDCHAR
STARTCHAR hcircumflex
ENCODING 293
SWIDTH 548 0
DWIDTH 15 0
BBX 14 27 -1 0
BITMAP
1C00
3E00
7F00
E780
4300
1C00
1C00
1C00
1C00
1C00
1C00
1C00
1C00
1C00
1DF0
1FF8
1FFC
1C1C
1C1C
1C1C
1C1C
1C1C
1C1C
1C1C
1C1C
1C1C
1C1C
ENDCHAR
STARTCHAR Hbar
ENCODING 294
SWIDTH 848 0
DWIDTH 23 0
BBX 23 20 0 0
BITMAP
0E00E0
0E00E0
0E00E0
FFFFFE
FFFFFE
0E00E0
0E00E0
0E00E0
0FFFE0
0FFFE0
0FFFE0
0E00E0
0E00E0
0E00E0
0E00E0
0E00E0
0E00E0
0E00E0
0E00E0
0E00E0
ENDCHAR
STARTCHAR hbar
ENCODING 295
SWIDTH 548 0
DWIDTH 15 0
BBX 13 22 0 0
BITMAP
3800
3800
3800
3800
FC00
FC00
FC00
3800
3800
3BE0
3FF0
3FF8
3838
3838
3838
3838
3838
3838
3838
3838
3838
3838
ENDCHAR
STARTCHAR Itilde
ENCODING 296
SWIDTH 403 0
DWIDTH 11 0
BBX 11 26 0 0
BITMAP
3840
7FE0
FFC0
4380
0000
0000
0E00
0E00
0E00
0E00
0E00
0E00
0E00
0E00
0E00
0E00
0E00
0E00
0E00
0E00
0E00
0E00
0E00
0E00
0E00
0E00
ENDCHAR
STARTCHAR itilde
ENCODING 297
SWIDTH 396 0
DWIDTH 11 0
BBX 11 19 0 0
BITMAP
3840
7FE0
FFC0
4380
0000
0000
0E00
0E00
0E00
0E00
0E00
0E00
0E00
0E00
0E00
0E00
0E00
0E00
0E00
ENDCHAR
STARTCHAR Imacron
ENCODING 298
SWIDTH 294 0
DWIDTH 8 0
BBX 8 25 0 0
BITMAP
FF
FF
00
00
00
3C
3C
3C
3C
3C
3C
3C
3C
3C
3C
3C
3C
3C
3C
3C
3C
3C
3C
3C
3C
ENDCHAR
STARTCHAR imacron
ENCODING 299
SWIDTH 249 0
DWIDTH 7 0
BBX 7 18 0 0
BITMAP
FE
FE
FE
00
00
38
38
38
38
38
38
38
38
38
38
38
38
38
ENDCHAR
STARTCHAR Ibreve
ENCODING 300
SWIDTH 352 0
DWIDTH 10 0
BBX 9 26 0 0
BITMAP
E180
F380
7F80
3E00
0000
0000
1C00
1C00
1C00
1C00
1C00
1C00
1C00
1C00
1C00
1C00
1C00
1C00
1C00
1C00
1C00
1C00
1C00
1C00
1C00
1C00
ENDCHAR
STARTCHAR ibreve
ENCODING 301
SWIDTH 349 0
DWIDTH 9 0
BBX 9 19 0 0
BITMAP
E180
F380
7F80
3E00
0000
0000
1C00
1C00
1C00
1C00
1C00
1C00
1C00
1C00
1C00
1C00
1C00
1C00
1C00
ENDCHAR
STARTCHAR Iogonek
ENCODING 302
SWIDTH 294 0
DWIDTH 8 0
BBX 6 27 0 -7
BITMAP
3C
3C
3C
3C
3C
3C
3C
3C
3C
3C
3C
3C
3C
3C
3C
3C
3C
3C
3C
3C
30
60
E0
E0
FC
F8
30
ENDCHAR
STARTCHAR iogonek
ENCODING 303
SWIDTH 249 0
DWIDTH 7 0
BBX 6 27 -1 -7
BITMAP
1C
3C
1C
18
00
00
00
1C
1C
1C
1C
1C
1C
1C
1C
1C
1C
1C
1C
1C
38
70
E0
E0
FC
7C
10
ENDCHAR
STARTCHAR Idotaccent
ENCODING 304
SWIDTH 294 0
DWIDTH 8 0
BBX 4 26 2 0
BITMAP
F0
F0
F0
40
00
00
F0
F0
F0
F0
F0
F0
F0
F0
F0
F0
F0
F0
F0
F0
F0
F0
F0
F0
F0
F0
ENDCHAR
STARTCHAR dotlessi
ENCODING 305
SWIDTH 249 0
DWIDTH 7 0
BBX 3 13 2 0
BITMAP
E0
E0
E0
E0
E0
E0
E0
E0
E0
E0
E0
E0
E0
ENDCHAR
STARTCHAR IJ
ENCODING 306
SWIDTH 722 0
DWIDTH 20 0
BBX 15 20 2 0
BITMAP
F00E
F00E
F00E
F00E
F00E
F00E
F00E
F00E
F00E
F00E
F00E
F00E
F00E
F00E
F00E
F00E
F01E
F1FC
F1FC
F3F8
ENDCHAR
STARTCHAR ij
ENCODING 307
SWIDTH 515 0
DWIDTH 14 0
BBX 11 27 1 -7
BITMAP
71C0
F1E0
71E0
60C0
0000
0000
0000
71C0
71C0
71C0
71C0
71C0
71C0
71C0
71C0
71C0
71C0
71C0
71C0
71C0
01C0
01C0
01C0
01C0
01C0
01C0
01C0
ENDCHAR
STARTCHAR Jcircumflex
ENCODING 308
SWIDTH 454 0
DWIDTH 12 0
BBX 12 28 0 0
BITMAP
0100
0380
07C0
0FE0
1EF0
0C60
0000
0000
0380
0380
0380
0380
0380
0380
0380
0380
0380
0380
0380
0380
0380
0380
0780
0700
0700
7F00
FE00
FC00
ENDCHAR
STARTCHAR jcircumflex
ENCODING 309
SWIDTH 342 0
DWIDTH 9 0
BBX 9 26 0 -5
BITMAP
0800
1C00
3E00
7F00
F780
6100
0000
0000
0000
0000
1C00
1C00
1C00
1C00
1C00
1C00
1C00
1C00
1C00
1C00
1C00
1C00
1C00
1C00
1C00
1C00
ENDCHAR
STARTCHAR Kcedilla
ENCODING 310
SWIDTH 662 0
DWIDTH 18 0
BBX 15 28 2 -8
BITMAP
F01E
F03C
F078
F0F0
F1E0
F3C0
F780
FF00
FE00
FE00
FF00
F780
F780
F3C0
F1E0
F0F0
F078
F07C
F03C
F01E
0000
0700
0700
0700
0700
0300
0300
0200
ENDCHAR
STARTCHAR kcedilla
ENCODING 311
SWIDTH 498 0
DWIDTH 13 0
BBX 11 30 2 -8
BITMAP
E000
E000
E000
E000
E000
E000
E000
E000
E000
E1E0
E3C0
E780
EF00
FE00
F800
FC00
FE00
EF00
E780
E380
E3C0
E1E0
0000
1C00
1C00
1C00
1C00
0C00
0C00
0800
ENDCHAR
STARTCHAR kgreenlandic
ENCODING 312
SWIDTH 498 0
DWIDTH 13 0
BBX 11 13 2 0
BITMAP
E1E0
E3C0
E780
EF00
FE00
F800
FC00
FE00
EF00
E780
E380
E3C0
E1E0
ENDCHAR
STARTCHAR Lacute
ENCODING 313
SWIDTH 443 0
DWIDTH 12 0
BBX 10 28 2 0
BITMAP
0400
0E00
1F00
3C00
7800
2000
0000
0000
F000
F000
F000
F000
F000
F000
F000
F000
F000
F000
F000
F000
F000
F000
F000
F000
F000
FFC0
FFC0
FFC0
ENDCHAR
STARTCHAR lacute
ENCODING 314
SWIDTH 249 0
DWIDTH 7 0
BBX 6 28 1 0
BITMAP
1C
3C
78
E0
40
00
70
70
70
70
70
70
70
70
70
70
70
70
70
70
70
70
70
70
70
70
70
70
ENDCHAR
STARTCHAR Lcedilla
ENCODING 315
SWIDTH 443 0
DWIDTH 12 0
BBX 10 27 2 -7
BITMAP
F000
F000
F000
F000
F000
F000
F000
F000
F000
F000
F000
F000
F000
F000
F000
F000
F000
FFC0
FFC0
FFC0
0000
1C00
1C00
1C00
1C00
0C00
0C00
ENDCHAR
STARTCHAR lcedilla
ENCODING 316
SWIDTH 249 0
DWIDTH 7 0
BBX 3 30 2 -8
BITMAP
E0
E0
E0
E0
E0
E0
E0
E0
E0
E0
E0
E0
E0
E0
E0
E0
E0
E0
E0
E0
E0
E0
00
E0
E0
E0
E0
60
E0
40
ENDCHAR
STARTCHAR Lcaron
ENCODING 317
SWIDTH 443 0
DWIDTH 12 0
BBX 10 20 2 0
BITMAP
F380
F380
F380
F180
F380
F300
F000
F000
F000
F000
F000
F000
F000
F000
F000
F000
F000
FFC0
FFC0
FFC0
ENDCHAR
STARTCHAR lcaron
ENCODING 318
SWIDTH 356 0
DWIDTH 10 0
BBX 7 22 2 0
BITMAP
E0
E0
EE
EE
EE
E6
E6
E6
E0
E0
E0
E0
E0
E0
E0
E0
E0
E0
E0
E0
E0
E0
ENDCHAR
STARTCHAR Ldotaccent
ENCODING 319
SWIDTH 443 0
DWIDTH 12 0
BBX 10 20 2 0
BITMAP
F000
F180
F3C0
F3C0
F180
F000
F000
F000
F000
F000
F000
F000
F000
F000
F000
F000
F000
FFC0
FFC0
FFC0
ENDCHAR
STARTCHAR ldotaccent
ENCODING 320
SWIDTH 468 0
DWIDTH 13 0
BBX 9 22 2 0
BITMAP
E000
E000
E000
E300
E780
E780
E300
E000
E000
E000
E000
E000
E000
E000
E000
E000
E000
E000
E000
E000
E000
E000
ENDCHAR
STARTCHAR Lslash
ENCODING 321
SWIDTH 443 0
DWIDTH 12 0
BBX 11 20 1 0
BITMAP
7800
7800
7800
7800
7800
7900
7B00
7F00
7E00
7C00
F800
F800
F800
7800
7800
7800
7800
7FE0
7FE0
7FE0
ENDCHAR
STARTCHAR lslash
ENCODING 322
SWIDTH 298 0
DWIDTH 8 0
BBX 6 22 1 0
BITMAP
38
38
38
38
38
38
38
38
3C
3C
3C
F8
F8
F8
38
38
38
38
38
38
38
38
ENDCHAR
STARTCHAR Nacute
ENCODING 323
SWIDTH 844 0
DWIDTH 23 0
BBX 18 27 2 0
BITMAP
003800
007800
00F000
01C000
008000
800000
C00000
E001C0
F001C0
F801C0
F801C0
FC01C0
FE01C0
FF01C0
F781C0
F3C1C0
F1E1C0
F0F1C0
F079C0
F03DC0
F01FC0
F00FC0
F007C0
F003C0
F001C0
F000C0
F00040
ENDCHAR
STARTCHAR nacute
ENCODING 324
SWIDTH 548 0
DWIDTH 15 0
BBX 11 20 2 0
BITMAP
0380
0780
0700
0E00
0C00
0000
0000
EF80
FFC0
FBE0
E0E0
E0E0
E0E0
E0E0
E0E0
E0E0
E0E0
E0E0
E0E0
E0E0
ENDCHAR
STARTCHAR Ncedilla
ENCODING 325
SWIDTH 844 0
DWIDTH 23 0
BBX 18 30 2 -8
BITMAP
800000
C00000
E001C0
F001C0
F801C0
F801C0
FC01C0
FE01C0
FF01C0
F781C0
F3C1C0
F1E1C0
F0F1C0
F079C0
F03DC0
F01FC0
F00FC0
F007C0
F003C0
F001C0
F000C0
F00040
000000
00E000
00E000
00E000
00E000
006000
006000
002000
ENDCHAR
STARTCHAR ncedilla
ENCODING 326
SWIDTH 548 0
DWIDTH 15 0
BBX 11 21 2 -8
BITMAP
EF80
FFC0
FBE0
E0E0
E0E0
E0E0
E0E0
E0E0
E0E0
E0E0
E0E0
E0E0
E0E0
0000
0E00
0E00
0E00
0E00
0600
0600
0400
ENDCHAR
STARTCHAR Ncaron
ENCODING 327
SWIDTH 844 0
DWIDTH 23 0
BBX 18 28 2 0
BITMAP
020800
071C00
03B800
01F000
00E000
004000
800000
C00000
E001C0
F001C0
F801C0
F801C0
FC01C0
FE01C0
FF01C0
F781C0
F3C1C0
F1E1C0
F0F1C0
F079C0
F03DC0
F01FC0
F00FC0
F007C0
F003C0
F001C0
F000C0
F00040
ENDCHAR
STARTCHAR ncaron
ENCODING 328
SWIDTH 548 0
DWIDTH 15 0
BBX 11 20 2 0
BITMAP
31C0
3BC0
1F80
0F00
0400
0000
0000
EF80
FFC0
FBE0
E0E0
E0E0
E0E0
E0E0
E0E0
E0E0
E0E0
E0E0
E0E0
E0E0
ENDCHAR
STARTCHAR quoterightn
ENCODING 329
SWIDTH 777 0
DWIDTH 21 0
BBX 16 21 2 0
BITMAP
3800
3800
3000
7000
6000
E000
C000
C000
077C
07FE
07FF
0787
0707
0707
0707
0707
0707
0707
0707
0707
0707
ENDCHAR
STARTCHAR Omacron
ENCODING 332
SWIDTH 893 0
DWIDTH 24 0
BBX 22 25 1 0
BITMAP
01FF00
01FF00
000000
000000
007800
03FF00
07FFC0
1F87E0
1E01F0
3C0070
780078
700038
700038
F0003C
F0001C
F0001C
70003C
700038
700038
780078
3C00F0
1E01E0
0FFFC0
07FF80
01FE00
ENDCHAR
STARTCHAR omacron
ENCODING 333
SWIDTH 601 0
DWIDTH 16 0
BBX 14 18 1 0
BITMAP
1FF0
1FF0
1FF0
0000
0000
0FC0
1FF0
3FF8
7038
703C
E01C
E01C
E01C
701C
7038
7CF8
3FF0
0FE0
ENDCHAR
STARTCHAR Obreve
ENCODING 334
SWIDTH 893 0
DWIDTH 24 0
BBX 22 26 1 0
BITMAP
038700
01CE00
01FE00
00FC00
000000
007800
03FF00
07FFC0
1F87E0
1E01F0
3C0070
780078
700038
700038
F0003C
F0001C
F0001C
70003C
700038
700038
780078
3C00F0
1E01E0
0FFFC0
07FF80
01FE00
ENDCHAR
STARTCHAR obreve
ENCODING 335
SWIDTH 601 0
DWIDTH 16 0
BBX 14 19 1 0
BITMAP
3870
1CE0
1FE0
0FC0
0000
0000
0FC0
1FF0
3FF8
7038
703C
E01C
E01C
E01C
701C
7038
7CF8
3FF0
0FE0
ENDCHAR
STARTCHAR Ohungarumlaut
ENCODING 336
SWIDTH 893 0
DWIDTH 24 0
BBX 22 28 1 0
BITMAP
002000
0071C0
00FBC0
01E780
03CE00
010400
000000
007800
03FF00
07FFC0
1F87E0
1E01F0
3C0070
780078
700038
700038
F0003C
F0001C
F0001C
70003C
700038
700038
780078
3C00F0
1E01E0
0FFFC0
07FF80
01FE00
ENDCHAR
STARTCHAR ohungarumlaut
ENCODING 337
SWIDTH 601 0
DWIDTH 16 0
BBX 14 21 1 0
BITMAP
0010
0718
0F38
0E70
1C60
1840
0000
0000
0FC0
1FF0
3FF8
7038
703C
E01C
E01C
E01C
701C
7038
7CF8
3FF0
0FE0
ENDCHAR
STARTCHAR OE
ENCODING 338
SWIDTH 1183 0
DWIDTH 32 0
BBX 29 21 1 0
BITMAP
00780000
03FF3FF8
0FFFBFF8
1F87FFF8
3E01F800
3C00F800
78007800
70003800
70003FF8
F0003FF8
F0003FF8
F0003800
70003800
70003800
70003800
78007800
3C00F800
1E01F800
0FFFFFF8
07FFBFF8
01FE3FF8
ENDCHAR
STARTCHAR oe
ENCODING 339
SWIDTH 953 0
DWIDTH 26 0
BBX 23 13 1 0
BITMAP
0FC3F0
1FF7FC
3FFFFC
703E0E
703C0E
E01FFE
E01FFE
E01C00
F01C04
703E0E
7CFF1E
3FF7FC
0FC3F8
ENDCHAR
STARTCHAR Racute
ENCODING 340
SWIDTH 602 0
DWIDTH 16 0
BBX 13 27 2 0
BITMAP
0380
0780
0F00
1C00
0800
0000
0000
FF80
FFC0
FFE0
F0E0
F070
F070
F070
F0F0
F1E0
FFC0
FF80
FE00
F700
F780
F3C0
F1C0
F1E0
F0F0
F078
F038
ENDCHAR
STARTCHAR racute
ENCODING 341
SWIDTH 374 0
DWIDTH 10 0
BBX 8 21 2 0
BITMAP
04
07
0E
1C
38
30
00
00
EF
FF
FE
F0
E0
E0
E0
E0
E0
E0
E0
E0
E0
ENDCHAR
STARTCHAR Rcedilla
ENCODING 342
SWIDTH 602 0
DWIDTH 16 0
BBX 13 28 2 -8
BITMAP
FF80
FFC0
FFE0
F0E0
F070
F070
F070
F0F0
F1E0
FFC0
FF80
FE00
F700
F780
F3C0
F1C0
F1E0
F0F0
F078
F038
0000
0700
0700
0700
0700
0300
0600
0200
ENDCHAR
STARTCHAR rcedilla
ENCODING 343
SWIDTH 374 0
DWIDTH 10 0
BBX 8 21 2 -8
BITMAP
EF
FF
FE
F0
E0
E0
E0
E0
E0
E0
E0
E0
E0
00
70
70
70
70
30
30
10
ENDCHAR
STARTCHAR Rcaron
ENCODING 344
SWIDTH 602 0
DWIDTH 16 0
BBX 13 28 2 0
BITMAP
2180
73C0
3F80
1F00
0E00
0400
0000
0000
FF80
FFC0
FFE0
F0E0
F070
F070
F070
F0F0
F1E0
FFC0
FF80
FE00
F700
F780
F3C0
F1C0
F1E0
F0F0
F078
F038
ENDCHAR
STARTCHAR rcaron
ENCODING 345
SWIDTH 374 0
DWIDTH 10 0
BBX 9 20 1 0
BITMAP
E380
F700
7E00
1C00
0800
0000
0000
7780
7F80
7F00
7800
7000
7000
7000
7000
7000
7000
7000
7000
7000
ENDCHAR
STARTCHAR Sacute
ENCODING 346
SWIDTH 583 0
DWIDTH 16 0
BBX 13 27 1 0
BITMAP
00E0
01E0
03C0
0700
0200
0000
0380
1FE0
3FF0
3C78
7830
7000
7800
3C00
3F00
1FC0
07E0
01F0
0078
0038
0038
F038
7038
7878
7FF0
3FF0
1FC0
ENDCHAR
STARTCHAR sacute
ENCODING 347
SWIDTH 405 0
DWIDTH 11 0
BBX 9 21 1 0
BITMAP
0200
0380
0780
0E00
1C00
1800
0000
0000
3E00
7F00
7700
7000
7000
7C00
3F00
0F80
0380
2380
F780
7F00
3E00
ENDCHAR
STARTCHAR Scircumflex
ENCODING 348
SWIDTH 583 0
DWIDTH 16 0
BBX 13 27 1 0
BITMAP
0380
07C0
0FE0
1CF0
0860
0000
0380
1FE0
3FF0
3C78
7830
7000
7800
3C00
3F00
1FC0
07E0
01F0
0078
0038
0038
F038
7038
7878
7FF0
3FF0
1FC0
ENDCHAR
STARTCHAR scircumflex
ENCODING 349
SWIDTH 405 0
DWIDTH 11 0
BBX 9 21 1 0
BITMAP
0800
1C00
3E00
7F00
F780
6100
0000
0000
3E00
7F00
7700
7000
7000
7C00
3F00
0F80
0380
2380
F780
7F00
3E00
ENDCHAR
STARTCHAR Scedilla
ENCODING 350
SWIDTH 583 0
DWIDTH 16 0
BBX 13 27 1 -6
BITMAP
0380
1FE0
3FF0
3C78
7830
7000
7800
3C00
3F00
1FC0
07E0
01F0
0078
0038
0038
F038
7038
7878
7FF0
3FF0
1FC0
0000
0000
0380
0380
0700
0E00
ENDCHAR
STARTCHAR scedilla
ENCODING 351
SWIDTH 405 0
DWIDTH 11 0
BBX 9 20 1 -7
BITMAP
3E00
7F00
7700
7000
7000
7C00
3F00
0F80
0380
2380
F780
7F00
3E00
0000
0000
0E00
1C00
1800
3800
1000
ENDCHAR
STARTCHAR Scaron
ENCODING 352
SWIDTH 583 0
DWIDTH 16 0
BBX 13 28 1 0
BITMAP
0840
1CF0
0FE0
07C0
0380
0100
0000
0380
1FE0
3FF0
3C78
7830
7000
7800
3C00
3F00
1FC0
07E0
01F0
0078
0038
0038
F038
7038
7878
7FF0
3FF0
1FC0
ENDCHAR
STARTCHAR scaron
ENCODING 353
SWIDTH 405 0
DWIDTH 11 0
BBX 9 20 1 0
BITMAP
E380
F780
3E00
1C00
0800
0000
0000
3E00
7F00
7700
7000
7000
7C00
3F00
0F80
0380
2380
F780
7F00
3E00
ENDCHAR
STARTCHAR Tcedilla
ENCODING 354
SWIDTH 482 0
DWIDTH 13 0
BBX 13 28 0 -8
BITMAP
FFF8
FFF8
FFF8
0700
0700
0700
0700
0700
0700
0700
0700
0700
0700
0700
0700
0700
0700
0700
0700
0700
0000
0700
0700
0700
0700
0300
0300
0200
ENDCHAR
STARTCHAR tcedilla
ENCODING 355
SWIDTH 273 0
DWIDTH 7 0
BBX 6 26 1 -8
BITMAP
70
70
70
70
70
FC
FC
FC
70
70
70
70
70
70
70
70
70
70
00
70
70
70
70
30
30
20
ENDCHAR
STARTCHAR Tcaron
ENCODING 356
SWIDTH 482 0
DWIDTH 13 0
BBX 13 28 0 0
BITMAP
1040
38E0
1FC0
0F80
0700
0200
0000
0000
FFF8
FFF8
FFF8
0700
0700
0700
0700
0700
0700
0700
0700
0700
0700
0700
0700
0700
0700
0700
0700
0700
ENDCHAR
STARTCHAR tcaron
ENCODING 357
SWIDTH 376 0
DWIDTH 10 0
BBX 9 20 1 0
BITMAP
0380
0380
7380
7180
7180
7300
7000
FC00
FC00
FC00
7000
7000
7000
7000
7000
7000
7000
7000
7000
7000
ENDCHAR
STARTCHAR Tbar
ENCODING 358
SWIDTH 482 0
DWIDTH 13 0
BBX 13 20 0 0
BITMAP
FFF8
FFF8
FFF8
0700
0700
0700
0700
1F80
1F80
1F80
0700
0700
0700
0700
0700
0700
0700
0700
0700
0700
ENDCHAR
STARTCHAR tbar
ENCODING 359
SWIDTH 273 0
DWIDTH 7 0
BBX 6 18 1 0
BITMAP
70
70
70
70
70
FC
FC
FC
70
70
F8
F8
F8
70
70
70
70
70
ENDCHAR
STARTCHAR Utilde
ENCODING 360
SWIDTH 738 0
DWIDTH 20 0
BBX 16 26 2 0
BITMAP
0708
0FFC
1FF8
08F0
0000
0000
F00F
F00F
F00F
F00F
F00F
F00F
F00F
F00F
F00F
F00F
F00F
F00F
F00F
F00E
700E
700E
781E
3FFC
1FF8
0FF0
ENDCHAR
STARTCHAR utilde
ENCODING 361
SWIDTH 544 0
DWIDTH 15 0
BBX 11 19 2 0
BITMAP
3840
7FE0
FFC0
4380
0000
0000
E0E0
E0E0
E0E0
E0E0
E0E0
E0E0
E0E0
E0E0
E0E0
E1E0
F3C0
7FC0
3F80
ENDCHAR
STARTCHAR Umacron
ENCODING 362
SWIDTH 738 0
DWIDTH 20 0
BBX 16 25 2 0
BITMAP
1FF8
1FF8
0000
0000
0000
F00F
F00F
F00F
F00F
F00F
F00F
F00F
F00F
F00F
F00F
F00F
F00F
F00F
F00E
700E
700E
781E
3FFC
1FF8
0FF0
ENDCHAR
STARTCHAR umacron
ENCODING 363
SWIDTH 544 0
DWIDTH 15 0
BBX 11 18 2 0
BITMAP
7FC0
7FC0
7FC0
0000
0000
E0E0
E0E0
E0E0
E0E0
E0E0
E0E0
E0E0
E0E0
E0E0
E1E0
F3C0
7FC0
3F80
ENDCHAR
STARTCHAR Ubreve
ENCODING 364
SWIDTH 738 0
DWIDTH 20 0
BBX 16 26 2 0
BITMAP
1C38
0E70
0FF0
07E0
0000
0000
F00F
F00F
F00F
F00F
F00F
F00F
F00F
F00F
F00F
F00F
F00F
F00F
F00F
F00E
700E
700E
781E
3FFC
1FF8
0FF0
ENDCHAR
STARTCHAR ubreve
ENCODING 365
SWIDTH 544 0
DWIDTH 15 0
BBX 11 19 2 0
BITMAP
70C0
71C0
3F80
1F00
0000
0000
E0E0
E0E0
E0E0
E0E0
E0E0
E0E0
E0E0
E0E0
E0E0
E1E0
F3C0
7FC0
3F80
ENDCHAR
STARTCHAR Uring
ENCODING 366
SWIDTH 738 0
DWIDTH 20 0
BBX 16 28 2 0
BITMAP
01C0
03E0
0660
0660
03E0
0180
0000
0000
F00F
F00F
F00F
F00F
F00F
F00F
F00F
F00F
F00F
F00F
F00F
F00F
F00F
F00E
700E
700E
781E
3FFC
1FF8
0FF0
ENDCHAR
STARTCHAR uring
ENCODING 367
SWIDTH 544 0
DWIDTH 15 0
BBX 11 21 2 0
BITMAP
0400
1F00
1300
1100
1B00
0E00
0000
0000
E0E0
E0E0
E0E0
E0E0
E0E0
E0E0
E0E0
E0E0
E0E0
E1E0
F3C0
7FC0
3F80
ENDCHAR
STARTCHAR Uhungarumlaut
ENCODING 368
SWIDTH 738 0
DWIDTH 20 0
BBX 16 28 2 0
BITMAP
0100
038E
07DE
0F3C
1E70
0820
0000
0000
F00F
F00F
F00F
F00F
F00F
F00F
F00F
F00F
F00F
F00F
F00F
F00F
F00F
F00E
700E
700E
781E
3FFC
1FF8
0FF0
ENDCHAR
STARTCHAR uhungarumlaut
ENCODING 369
SWIDTH 544 0
DWIDTH 15 0
BBX 12 21 2 0
BITMAP
0800
0C70
1C70
38E0
31C0
2180
0000
0000
E0E0
E0E0
E0E0
E0E0
E0E0
E0E0
E0E0
E0E0
E0E0
E1E0
F3C0
7FC0
3F80
ENDCHAR
STARTCHAR Uogonek
ENCODING 370
SWIDTH 738 0
DWIDTH 20 0
BBX 16 27 2 -7
BITMAP
F00F
F00F
F00F
F00F
F00F
F00F
F00F
F00F
F00F
F00F
F00F
F00F
F00F
F00E
700E
700E
781E
3FFC
1FF8
0FF0
01C0
0380
0700
0700
07E0
03E0
01C0
ENDCHAR
STARTCHAR uogonek
ENCODING 371
SWIDTH 544 0
DWIDTH 15 0
BBX 11 20 2 -7
BITMAP
E0E0
E0E0
E0E0
E0E0
E0E0
E0E0
E0E0
E0E0
E0E0
E1E0
F3C0
7FC0
3F80
0E00
1C00
1800
3800
3F00
1F00
0400
ENDCHAR
STARTCHAR Wcircumflex
ENCODING 372
SWIDTH 1060 0
DWIDTH 29 0
BBX 28 28 0 -1
BITMAP
00070000
000F8000
001FC000
0039E000
0010C000
00000000
00020000
F0020070
700600F0
780700E0
380F00E0
380F01E0
3C0F81C0
1C1F83C0
1E1F8380
0E1DC380
0E39C700
0F38E700
0770EF00
0770EE00
03F07E00
03E07C00
03E07C00
01E03800
01C03800
00C03800
00801000
00801000
ENDCHAR
STARTCHAR wcircumflex
ENCODING 373
SWIDTH 773 0
DWIDTH 21 0
BBX 21 21 0 0
BITMAP
002000
007000
00F800
01FC00
03DE00
018C00
000000
002000
F02078
707070
7870F0
3870E0
38F9E0
1CF9C0
1DDDC0
0FDF80
0F8F80
078F00
070700
030600
030600
ENDCHAR
STARTCHAR Ycircumflex
ENCODING 374
SWIDTH 600 0
DWIDTH 16 0
BBX 16 27 0 0
BITMAP
0180
03C0
07F0
0E78
0430
0000
0000
F00F
700E
381E
3C1C
1C3C
1E78
0E70
0FF0
07E0
03E0
03C0
01C0
01C0
01C0
01C0
01C0
01C0
01C0
01C0
01C0
ENDCHAR
STARTCHAR ycircumflex
ENCODING 375
SWIDTH 543 0
DWIDTH 15 0
BBX 14 28 0 -7
BITMAP
0100
0380
07C0
0FE0
1EF0
0C60
0000
0000
F01C
703C
7838
3838
1C70
1C70
0EE0
0FE0
07C0
07C0
0380
0780
0700
0F00
0E00
1E00
1C00
3C00
3800
7800
ENDCHAR
STARTCHAR Ydieresis
ENCODING 376
SWIDTH 600 0
DWIDTH 16 0
BBX 16 26 0 0
BITMAP
0E38
1E78
1E78
0410
0000
0000
F00F
700E
381E
3C1C
1C3C
1E78
0E70
0FF0
07E0
03E0
03C0
01C0
01C0
01C0
01C0
01C0
01C0
01C0
01C0
01C0
ENDCHAR
STARTCHAR Zacute
ENCODING 377
SWIDTH 625 0
DWIDTH 17 0
BBX 15 27 1 0
BITMAP
0060
00F0
01C0
0380
0000
0000
0000
3FFC
3FFC
3FF8
0078
0070
00F0
00E0
01C0
03C0
0380
0780
0700
0F00
0E00
1C00
3C00
3800
7FFE
7FFE
FFFE
ENDCHAR
STARTCHAR zacute
ENCODING 378
SWIDTH 543 0
DWIDTH 15 0
BBX 13 20 1 0
BITMAP
00E0
01E0
01C0
0380
0300
0000
0000
7FF8
7FF0
7FF0
01E0
03C0
0780
0700
0E00
1E00
3C00
7FF8
FFF8
FFF8
ENDCHAR
STARTCHAR Zdotaccent
ENCODING 379
SWIDTH 625 0
DWIDTH 17 0
BBX 15 26 1 0
BITMAP
03C0
03C0
03C0
0100
0000
0000
3FFC
3FFC
3FF8
0078
0070
00F0
00E0
01C0
03C0
0380
0780
0700
0F00
0E00
1C00
3C00
3800
7FFE
7FFE
FFFE
ENDCHAR
STARTCHAR zdotaccent
ENCODING 380
SWIDTH 543 0
DWIDTH 15 0
BBX 13 19 1 0
BITMAP
0300
0780
0780
0300
0000
0000
7FF8
7FF0
7FF0
01E0
03C0
0780
0700
0E00
1E00
3C00
7FF8
FFF8
FFF8
ENDCHAR
STARTCHAR Zcaron
ENCODING 381
SWIDTH 625 0
DWIDTH 17 0
BBX 15 28 1 0
BITMAP
0420
1E78
0FF0
07E0
01C0
0000
0000
0000
3FFC
3FFC
3FF8
0078
0070
00F0
00E0
01C0
03C0
0380
0780
0700
0F00
0E00
1C00
3C00
3800
7FFE
7FFE
FFFE
ENDCHAR
STARTCHAR zcaron
ENCODING 382
SWIDTH 543 0
DWIDTH 15 0
BBX 13 21 1 0
BITMAP
0040
1CE0
1FE0
0FC0
0780
0300
0000
0000
7FF8
7FF0
7FF0
01E0
03C0
0780
0700
0E00
1E00
3C00
7FF8
FFF8
FFF8
ENDCHAR
STARTCHAR florin
ENCODING 402
SWIDTH 641 0
DWIDTH 17 0
BBX 14 26 1 -5
BITMAP
007C
00FC
00E4
01E0
01C0
01C0
01C0
03C0
0FF8
0FF8
1FF0
0380
0380
0780
0700
0700
0700
0700
0700
0E00
0E00
0E00
1E00
FC00
F800
E000
ENDCHAR
STARTCHAR Scommaaccent
ENCODING 536
SWIDTH 583 0
DWIDTH 16 0
BBX 13 28 1 -7
BITMAP
0380
1FE0
3FF0
3C78
7830
7000
7800
3C00
3F00
1FC0
07E0
01F0
0078
0038
0038
F038
7038
7878
7FF0
3FF0
1FC0
0000
0000
0380
0380
0700
0E00
0400
ENDCHAR
STARTCHAR scommaaccent
ENCODING 537
SWIDTH 405 0
DWIDTH 11 0
BBX 9 20 1 -7
BITMAP
3E00
7F00
7700
7000
7000
7C00
3F00
0F80
0380
2380
F780
7F00
3E00
0000
0000
0E00
1C00
1800
3800
1000
ENDCHAR
STARTCHAR Tcedilla.dup1
ENCODING 538
SWIDTH 482 0
DWIDTH 13 0
BBX 13 28 0 -8
BITMAP
FFF8
FFF8
FFF8
0700
0700
0700
0700
0700
0700
0700
0700
0700
0700
0700
0700
0700
0700
0700
0700
0700
0000
0700
0700
0700
0700
0300
0300
0200
ENDCHAR
STARTCHAR tcedilla.dup2
ENCODING 539
SWIDTH 273 0
DWIDTH 7 0
BBX 6 26 1 -8
BITMAP
70
70
70
70
70
FC
FC
FC
70
70
70
70
70
70
70
70
70
70
00
70
70
70
70
30
30
20
ENDCHAR
STARTCHAR quoteleft
ENCODING 699
SWIDTH 326 0
DWIDTH 9 0
BBX 5 8 2 13
BITMAP
18
38
38
70
70
E0
E0
E0
ENDCHAR
STARTCHAR quoteright
ENCODING 700
SWIDTH 326 0
DWIDTH 9 0
BBX 5 8 2 13
BITMAP
38
38
30
70
60
E0
C0
C0
ENDCHAR
STARTCHAR circumflex
ENCODING 710
SWIDTH 565 0
DWIDTH 15 0
BBX 9 6 3 15
BITMAP
0800
1C00
3E00
7F00
F780
6100
ENDCHAR
STARTCHAR caron
ENCODING 711
SWIDTH 565 0
DWIDTH 15 0
BBX 8 5 4 15
BITMAP
C7
EF
7E
3C
10
ENDCHAR
STARTCHAR macron.dup3
ENCODING 713
SWIDTH 565 0
DWIDTH 15 0
BBX 9 3 3 15
BITMAP
FF80
FF80
FF80
ENDCHAR
STARTCHAR breve
ENCODING 728
SWIDTH 565 0
DWIDTH 15 0
BBX 9 4 3 15
BITMAP
E180
E380
7F00
3E00
ENDCHAR
STARTCHAR dotaccent
ENCODING 729
SWIDTH 565 0
DWIDTH 15 0
BBX 4 4 6 15
BITMAP
E0
F0
F0
E0
ENDCHAR
STARTCHAR ring
ENCODING 730
SWIDTH 565 0
DWIDTH 15 0
BBX 6 6 5 15
BITMAP
20
78
CC
CC
FC
78
ENDCHAR
STARTCHAR ogonek
ENCODING 731
SWIDTH 650 0
DWIDTH 18 0
BBX 6 7 6 -7
BITMAP
38
60
E0
E0
FC
7C
10
ENDCHAR
STARTCHAR tilde
ENCODING 732
SWIDTH 565 0
DWIDTH 15 0
BBX 11 4 2 15
BITMAP
3840
7FE0
FFC0
4380
ENDCHAR
STARTCHAR hungarumlaut
ENCODING 733
SWIDTH 565 0
DWIDTH 15 0
BBX 11 6 4 15
BITMAP
0080
38E0
39C0
7380
E300
C200
ENDCHAR
STARTCHAR gravecmb
ENCODING 768
SWIDTH 0 0
DWIDTH 0 0
BBX 5 5 -12 15
BITMAP
E0
F0
78
38
18
ENDCHAR
STARTCHAR acutecmb
ENCODING 769
SWIDTH 0 0
DWIDTH 0 0
BBX 5 5 -8 15
BITMAP
38
78
F0
E0
80
ENDCHAR
STARTCHAR circumflexcmb
ENCODING 770
SWIDTH 0 0
DWIDTH 0 0
BBX 9 6 -12 15
BITMAP
0800
1C00
3E00
7F00
F780
4300
ENDCHAR
STARTCHAR tildecmb
ENCODING 771
SWIDTH 0 0
DWIDTH 0 0
BBX 11 4 -13 15
BITMAP
3840
7FE0
FFC0
4380
ENDCHAR
STARTCHAR macroncmb
ENCODING 772
SWIDTH 0 0
DWIDTH 0 0
BBX 9 3 -12 15
BITMAP
FF80
FF80
FF80
ENDCHAR
STARTCHAR brevecmb
ENCODING 774
SWIDTH 0 0
DWIDTH 0 0
BBX 9 4 -12 15
BITMAP
C380
E380
7F00
3E00
ENDCHAR
STARTCHAR dotaccentcmb
ENCODING 775
SWIDTH 0 0
DWIDTH 0 0
BBX 4 4 -10 15
BITMAP
70
F0
F0
70
ENDCHAR
STARTCHAR dieresiscmb
ENCODING 776
SWIDTH 0 0
DWIDTH 0 0
BBX 9 4 -12 15
BITMAP
6300
E780
E780
E300
ENDCHAR
STARTCHAR ringcmb
ENCODING 778
SWIDTH 0 0
DWIDTH 0 0
BBX 6 6 -10 15
BITMAP
20
78
CC
8C
F8
78
ENDCHAR
STARTCHAR hungarumlautcmb
ENCODING 779
SWIDTH 0 0
DWIDTH 0 0
BBX 10 6 -11 15
BITMAP
0080
38C0
79C0
7380
E300
C200
ENDCHAR
STARTCHAR caroncmb
ENCODING 780
SWIDTH 0 0
DWIDTH 0 0
BBX 8 5 -12 15
BITMAP
E3
F7
7E
1C
08
ENDCHAR
STARTCHAR commaaccent
ENCODING 806
SWIDTH 0 0
DWIDTH 0 0
BBX 3 6 -5 -7
BITMAP
E0
E0
E0
E0
60
60
ENDCHAR
STARTCHAR cedillacmb
ENCODING 807
SWIDTH 0 0
DWIDTH 0 0
BBX 5 4 -10 -6
BITMAP
38
70
70
E0
ENDCHAR
STARTCHAR ogonekcmb
ENCODING 808
SWIDTH 0 0
DWIDTH 0 0
BBX 6 7 -12 -7
BITMAP
38
70
60
E0
7C
7C
18
ENDCHAR
STARTCHAR soliduslongoverlaycmb
ENCODING 824
SWIDTH 0 0
DWIDTH 0 0
BBX 14 27 -14 -5
BITMAP
001C
001C
0038
0038
0070
0070
00E0
00E0
00E0
01C0
01C0
0380
0380
0700
0700
0600
0E00
0E00
1C00
1C00
3800
3800
3000
7000
7000
E000
E000
ENDCHAR
STARTCHAR Deltagreek
ENCODING 916
SWIDTH 753 0
DWIDTH 20 0
BBX 18 20 1 0
BITMAP
01E000
01E000
03F000
03F000
03B800
073800
073800
0F1C00
0E1C00
0E1E00
1E0E00
1C0E00
1C0700
380700
380780
780380
700380
7FFFC0
FFFFC0
FFFFC0
ENDCHAR
STARTCHAR Omegagreek
ENCODING 937
SWIDTH 753 0
DWIDTH 20 0
BBX 18 21 1 0
BITMAP
01F000
0FFC00
1FFE00
3E0F00
780780
7003C0
F003C0
E001C0
E001C0
E001C0
E001C0
E001C0
E001C0
F001C0
700380
380380
380700
0C0E00
FF3FC0
FF3FC0
FF3FC0
ENDCHAR
STARTCHAR pi
ENCODING 960
SWIDTH 702 0
DWIDTH 19 0
BBX 17 15 1 0
BITMAP
FFFF80
FFFF80
FFFF80
380E00
380E00
380E00
380E00
380E00
380E00
380E00
380E00
380E00
380E00
380E00
380E00
ENDCHAR
STARTCHAR zerowidthjoiner
ENCODING 8205
SWIDTH 0 0
DWIDTH 0 0
BBX 1 1 0 0
BITMAP
00
ENDCHAR
STARTCHAR endash
ENCODING 8211
SWIDTH 641 0
DWIDTH 17 0
BBX 11 3 3 5
BITMAP
FFE0
FFE0
FFE0
ENDCHAR
STARTCHAR emdash
ENCODING 8212
SWIDTH 652 0
DWIDTH 18 0
BBX 18 3 0 5
BITMAP
FFFFC0
FFFFC0
FFFFC0
ENDCHAR
STARTCHAR quoteleft.dup4
ENCODING 8216
SWIDTH 326 0
DWIDTH 9 0
BBX 5 8 2 13
BITMAP
18
38
38
70
70
E0
E0
E0
ENDCHAR
STARTCHAR quoteright.dup5
ENCODING 8217
SWIDTH 326 0
DWIDTH 9 0
BBX 5 8 2 13
BITMAP
38
38
30
70
60
E0
C0
C0
ENDCHAR
STARTCHAR quotesinglbase
ENCODING 8218
SWIDTH 326 0
DWIDTH 9 0
BBX 5 8 2 -5
BITMAP
38
38
70
70
E0
E0
C0
40
ENDCHAR
STARTCHAR quotedblleft
ENCODING 8220
SWIDTH 521 0
DWIDTH 14 0
BBX 10 8 2 13
BITMAP
18C0
38C0
39C0
7180
7380
E380
E700
E700
ENDCHAR
STARTCHAR quotedblright
ENCODING 8221
SWIDTH 521 0
DWIDTH 14 0
BBX 10 8 2 13
BITMAP
38C0
39C0
31C0
7380
6380
E300
C700
C600
ENDCHAR
STARTCHAR quotedblbase
ENCODING 8222
SWIDTH 521 0
DWIDTH 14 0
BBX 10 9 2 -5
BITMAP
0080
39C0
39C0
7180
7380
E300
E700
C600
4200
ENDCHAR
STARTCHAR dagger
ENCODING 8224
SWIDTH 641 0
DWIDTH 17 0
BBX 11 27 3 -5
BITMAP
0E00
0E00
0E00
0E00
FFE0
FFE0
FFE0
0E00
0E00
0E00
0E00
0E00
0E00
0E00
0E00
0E00
0E00
0E00
0E00
0E00
0E00
0E00
0E00
0E00
0E00
0E00
0E00
ENDCHAR
STARTCHAR daggerdbl
ENCODING 8225
SWIDTH 641 0
DWIDTH 17 0
BBX 11 27 3 -5
BITMAP
0E00
0E00
0E00
0E00
FFE0
FFE0
FFE0
0E00
0E00
0E00
0E00
0E00
0E00
0E00
0E00
FFE0
FFE0
FFE0
0E00
0E00
0E00
0E00
0E00
0E00
0E00
0E00
0E00
ENDCHAR
STARTCHAR bullet
ENCODING 8226
SWIDTH 753 0
DWIDTH 20 0
BBX 8 9 6 6
BITMAP
18
7E
7F
FF
FF
FF
FF
7E
3C
ENDCHAR
STARTCHAR ellipsis
ENCODING 8230
SWIDTH 944 0
DWIDTH 26 0
BBX 21 3 2 0
BITMAP
707038
F07878
707038
ENDCHAR
STARTCHAR perthousand
ENCODING 8240
SWIDTH 1359 0
DWIDTH 37 0
BBX 35 21 1 0
BITMAP
0000800000
3F00C00000
7F81800000
E181800000
C1C3000000
C0C6000000
E1C6000000
738C000000
7F8C000000
1E18000000
0018000000
0030000000
0061F81F80
0063FC3FC0
00C70C70C0
00C60E60E0
01860E60E0
01060E60E0
03071C71C0
0603FC3FC0
0601F01F00
ENDCHAR
STARTCHAR guilsinglleft
ENCODING 8249
SWIDTH 366 0
DWIDTH 10 0
BBX 7 13 1 0
BITMAP
04
0E
1C
3C
38
70
E0
70
38
1C
1C
0E
04
ENDCHAR
STARTCHAR guilsinglright
ENCODING 8250
SWIDTH 366 0
DWIDTH 10 0
BBX 7 13 2 0
BITMAP
40
E0
70
70
38
1C
0E
1C
38
70
F0
E0
40
ENDCHAR
STARTCHAR fraction
ENCODING 8260
SWIDTH 183 0
DWIDTH 5 0
BBX 13 21 -4 0
BITMAP
0010
0018
0030
0030
0060
0060
00C0
0180
0180
0300
0300
0600
0400
0C00
1800
1800
3000
3000
6000
C000
C000
ENDCHAR
STARTCHAR Euro
ENCODING 8364
SWIDTH 617 0
DWIDTH 17 0
BBX 11 21 3 0
BITMAP
00E0
03E0
0FE0
1F00
3C00
3800
7000
7F80
FF80
FF80
0000
0000
FF80
FF80
7000
7800
3C00
3E00
1FE0
0FE0
03E0
ENDCHAR
STARTCHAR trademark
ENCODING 8482
SWIDTH 794 0
DWIDTH 21 0
BBX 20 12 0 9
BITMAP
002000
FE2060
FE3060
1830E0
1878E0
1879E0
187DE0
186DB0
186F30
18E730
18C630
18C230
ENDCHAR
STARTCHAR Omega
ENCODING 8486
SWIDTH 753 0
DWIDTH 20 0
BBX 18 21 1 0
BITMAP
01F000
0FFC00
1FFE00
3E0F00
780780
7003C0
F003C0
E001C0
E001C0
E001C0
E001C0
E001C0
E001C0
F001C0
700380
380380
380700
0C0E00
FF3FC0
FF3FC0
FF3FC0
ENDCHAR
STARTCHAR partialdiff
ENCODING 8706
SWIDTH 565 0
DWIDTH 15 0
BBX 14 20 1 0
BITMAP
3C00
7F00
3F80
07C0
01E0
00F0
0070
1FB8
3FF8
78F8
F038
E03C
E03C
E038
E038
E038
F078
78F0
3FE0
1FC0
ENDCHAR
STARTCHAR Delta
ENCODING 8710
SWIDTH 753 0
DWIDTH 20 0
BBX 18 20 1 0
BITMAP
01E000
01E000
03F000
03F000
03B800
073800
073800
0F1C00
0E1C00
0E1E00
1E0E00
1C0E00
1C0700
380700
380780
780380
700380
7FFFC0
FFFFC0
FFFFC0
ENDCHAR
STARTCHAR product
ENCODING 8719
SWIDTH 809 0
DWIDTH 22 0
BBX 20 31 1 -8
BITMAP
FFFFF0
FFFFF0
FFFFF0
1C0380
1C0380
1C0380
1C0380
1C0380
1C0380
1C0380
1C0380
1C0380
1C0380
1C0380
1C0380
1C0380
1C0380
1C0380
1C0380
1C0380
1C0380
1C0380
1C0380
1C0380
1C0380
1C0380
1C0380
1C0380
FF0FF0
FF0FF0
FF0FF0
ENDCHAR
STARTCHAR summation
ENCODING 8721
SWIDTH 753 0
DWIDTH 20 0
BBX 18 31 1 -8
BITMAP
FFFFC0
FFFFC0
FFFFC0
F001C0
7001C0
7801C0
3801C0
1C0000
1E0000
0E0000
0F0000
078000
038000
03C000
01E000
01C000
03C000
038000
078000
0F0000
0E0000
1E0000
1C0000
3C01C0
7801C0
7801C0
F001C0
E001C0
FFFFC0
FFFFC0
FFFFC0
ENDCHAR
STARTCHAR minus
ENCODING 8722
SWIDTH 641 0
DWIDTH 17 0
BBX 14 3 2 9
BITMAP
FFFC
FFFC
FFFC
ENDCHAR
STARTCHAR divisionslash
ENCODING 8725
SWIDTH 183 0
DWIDTH 5 0
BBX 13 21 -4 0
BITMAP
0010
0018
0030
0030
0060
0060
00C0
0180
0180
0300
0300
0600
0400
0C00
1800
1800
3000
3000
6000
C000
C000
ENDCHAR
STARTCHAR bulletoperator
ENCODING 8729
SWIDTH 308 0
DWIDTH 8 0
BBX 4 4 2 8
BITMAP
60
F0
F0
60
ENDCHAR
STARTCHAR radical
ENCODING 8730
SWIDTH 753 0
DWIDTH 20 0
BBX 20 25 0 0
BITMAP
000FF0
001FF0
001FF0
001C00
001C00
003C00
003C00
003800
003800
007800
007800
007000
007000
F8F000
F8F000
FCE000
1CE000
1CE000
1DC000
1FC000
0FC000
0FC000
0F8000
0F8000
078000
ENDCHAR
STARTCHAR infinity
ENCODING 8734
SWIDTH 753 0
DWIDTH 20 0
BBX 19 9 1 6
BITMAP
3E1F80
7F3FC0
F7FBC0
E1F1E0
E0E0E0
E1E0E0
F3F9E0
FF3FC0
7E1F80
ENDCHAR
STARTCHAR integral
ENCODING 8747
SWIDTH 565 0
DWIDTH 15 0
BBX 11 31 2 -8
BITMAP
01E0
07E0
0FE0
0F00
0E00
0E00
0E00
0E00
0E00
0E00
0E00
0E00
0E00
0E00
0E00
0E00
0E00
0E00
0E00
0E00
0E00
0E00
0E00
0E00
0E00
0E00
0E00
0E00
7E00
FC00
2000
ENDCHAR
STARTCHAR approxequal
ENCODING 8776
SWIDTH 565 0
DWIDTH 15 0
BBX 15 11 0 5
BITMAP
0C04
3F0E
7FFC
77FC
60F8
0000
1E04
3F8E
7FFC
E3F8
4070
ENDCHAR
STARTCHAR notequal
ENCODING 8800
SWIDTH 565 0
DWIDTH 15 0
BBX 13 14 1 3
BITMAP
00E0
00C0
01C0
FFF8
FFF8
0300
0700
0600
FFF8
FFF8
FFF8
1C00
1800
0800
ENDCHAR
STARTCHAR lessequal
ENCODING 8804
SWIDTH 565 0
DWIDTH 15 0
BBX 13 18 1 1
BITMAP
0018
0078
01F8
07E0
1F80
FC00
F000
F800
FE00
1F80
07E0
01F8
0078
0018
0000
FFF8
FFF8
FFF8
ENDCHAR
STARTCHAR greaterequal
ENCODING 8805
SWIDTH 565 0
DWIDTH 15 0
BBX 13 18 1 1
BITMAP
C000
F000
FC00
3F80
07E0
01F8
0078
0078
01F8
0FE0
3F00
FC00
F000
C000
0000
FFF8
FFF8
FFF8
ENDCHAR
STARTCHAR lozenge
ENCODING 9674
SWIDTH 753 0
DWIDTH 20 0
BBX 16 21 2 0
BITMAP
0080
0180
03C0
03E0
07F0
0F70
1E78
1C3C
381C
780E
F00F
700F
781E
3C1C
1C38
0E78
0FF0
07E0
03E0
01C0
0180
ENDCHAR
STARTCHAR apple
ENCODING 63743
SWIDTH 790 0
DWIDTH 21 0
BBX 19 23 1 -1
BITMAP
000400
001C00
003C00
003800
003000
0E0F00
1FFFC0
3FFFE0
7FFF80
7FFF80
7FFF00
FFFF00
FFFF00
FFFF00
7FFF80
7FFFC0
7FFFE0
3FFFE0
3FFFC0
1FFFC0
1FFF80
0FFF00
020000
ENDCHAR
STARTCHAR fi
ENCODING 64257
SWIDTH 530 0
DWIDTH 14 0
BBX 11 23 1 0
BITMAP
0600
1FC0
3FC0
79E0
70E0
70E0
70E0
7000
7000
7000
FEE0
FEE0
FEE0
70E0
70E0
70E0
70E0
70E0
70E0
70E0
70E0
70E0
70E0
ENDCHAR
STARTCHAR fl
ENCODING 64258
SWIDTH 530 0
DWIDTH 14 0
BBX 11 23 1 0
BITMAP
0600
1FC0
3FC0
79E0
70E0
70E0
70E0
70E0
70E0
70E0
FEE0
FEE0
FEE0
70E0
70E0
70E0
70E0
70E0
70E0
70E0
70E0
70E0
70E0
ENDCHAR
STARTCHAR Dieresis
ENCODING -1
SWIDTH 740 0
DWIDTH 20 0
BBX 10 4 5 22
BITMAP
71C0
F3C0
73C0
2180
ENDCHAR
STARTCHAR Grave
ENCODING -1
SWIDTH 740 0
DWIDTH 20 0
BBX 6 5 6 22
BITMAP
E0
F0
78
1C
08
ENDCHAR
STARTCHAR judge
ENCODING -1
SWIDTH 700 0
DWIDTH 19 0
BBX 5 5 8 -7
BITMAP
38
78
70
E0
40
ENDCHAR
STARTCHAR up
ENCODING -1
SWIDTH 294 0
DWIDTH 8 0
BBX 6 6 2 22
BITMAP
08
1C
3C
78
F0
40
ENDCHAR
STARTCHAR oak
ENCODING -1
SWIDTH 294 0
DWIDTH 8 0
BBX 7 5 -1 23
BITMAP
20
70
F8
3C
1E
ENDCHAR
STARTCHAR uniE770
ENCODING -1
SWIDTH 249 0
DWIDTH 7 0
BBX 9 4 -1 15
BITMAP
6300
F780
F780
6700
ENDCHAR
STARTCHAR uniE773
ENCODING -1
SWIDTH 249 0
DWIDTH 7 0
BBX 5 6 2 15
BITMAP
10
18
38
70
E0
C0
ENDCHAR
STARTCHAR uniE774
ENCODING -1
SWIDTH 249 0
DWIDTH 7 0
BBX 5 6 -1 15
BITMAP
20
E0
F0
78
38
18
ENDCHAR
STARTCHAR uniE772
ENCODING -1
SWIDTH 249 0
DWIDTH 7 0
BBX 9 5 -1 15
BITMAP
1C00
3E00
7F00
F780
6300
ENDCHAR
STARTCHAR ash
ENCODING -1
SWIDTH 249 0
DWIDTH 7 0
BBX 3 6 2 14
BITMAP
E0
E0
E0
60
60
C0
ENDCHAR
STARTCHAR yea
ENCODING -1
SWIDTH 842 0
DWIDTH 23 0
BBX 9 5 7 22
BITMAP
E180
E180
7F80
7F00
1C00
ENDCHAR
STARTCHAR ice
ENCODING -1
SWIDTH 294 0
DWIDTH 8 0
BBX 8 6 0 22
BITMAP
10
3C
7E
FF
E7
42
ENDCHAR
STARTCHAR sure
ENCODING -1
SWIDTH 740 0
DWIDTH 20 0
BBX 9 6 6 22
BITMAP
0800
1C00
7E00
FF00
E780
4000
ENDCHAR
STARTCHAR hung
ENCODING -1
SWIDTH 740 0
DWIDTH 20 0
BBX 10 4 5 22
BITMAP
7CC0
FFC0
CFC0
4300
ENDCHAR
STARTCHAR fee
ENCODING -1
SWIDTH 740 0
DWIDTH 20 0
BBX 6 6 7 22
BITMAP
38
7C
CC
CC
7C
30
ENDCHAR
STARTCHAR Caron
ENCODING -1
SWIDTH 625 0
DWIDTH 17 0
BBX 10 5 4 23
BITMAP
2100
F3C0
7F80
3F00
0E00
ENDCHAR
STARTCHAR Acute
ENCODING -1
SWIDTH 565 0
DWIDTH 15 0
BBX 6 5 6 22
BITMAP
1C
3C
78
E0
40
ENDCHAR
STARTCHAR eat
ENCODING -1
SWIDTH 294 0
DWIDTH 8 0
BBX 8 4 0 22
BITMAP
E7
E7
E7
42
ENDCHAR
STARTCHAR kick
ENCODING -1
SWIDTH 294 0
DWIDTH 8 0
BBX 4 4 2 22
BITMAP
F0
F0
F0
40
ENDCHAR
STARTCHAR uniF6C3
ENCODING -1
SWIDTH 249 0
DWIDTH 7 0
BBX 3 7 2 -8
BITMAP
E0
E0
E0
E0
60
60
40
ENDCHAR
STARTCHAR uniE784
ENCODING -1
SWIDTH 249 0
DWIDTH 7 0
BBX 3 6 2 15
BITMAP
60
C0
C0
E0
E0
E0
ENDCHAR
STARTCHAR Hungarumlaut
ENCODING -1
SWIDTH 893 0
DWIDTH 24 0
BBX 12 6 7 22
BITMAP
0800
1C70
3EF0
79E0
F380
4100
ENDCHAR
STARTCHAR Macron
ENCODING -1
SWIDTH 565 0
DWIDTH 15 0
BBX 9 2 3 23
BITMAP
FF80
FF80
ENDCHAR
STARTCHAR ooze
ENCODING -1
SWIDTH 294 0
DWIDTH 8 0
BBX 8 2 0 23
BITMAP
FF
FF
ENDCHAR
STARTCHAR uniE775
ENCODING -1
SWIDTH 249 0
DWIDTH 7 0
BBX 7 3 0 15
BITMAP
FE
FE
FE
ENDCHAR
STARTCHAR dotlessj
ENCODING -1
SWIDTH 331 0
DWIDTH 9 0
BBX 3 16 3 -5
BITMAP
E0
E0
E0
E0
E0
E0
E0
E0
E0
E0
E0
E0
E0
E0
E0
E0
ENDCHAR
ENDFONT
